<?xml version="1.0" encoding="UTF-8" standalone="no"?>
<svg
   width="1020"
   height="593"
   version="1.1"
   id="svg3"
   sodipodi:docname="ElectoralCollege2024.svg"
   inkscape:version="1.4.3 (0d15f75, 2025-12-25)"
   xmlns:inkscape="http://www.inkscape.org/namespaces/inkscape"
   xmlns:sodipodi="http://sodipodi.sourceforge.net/DTD/sodipodi-0.dtd"
   xmlns="http://www.w3.org/2000/svg"
   xmlns:svg="http://www.w3.org/2000/svg">
  <sodipodi:namedview
     id="namedview3"
     pagecolor="#ffffff"
     bordercolor="#000000"
     borderopacity="0.25"
     inkscape:showpageshadow="2"
     inkscape:pageopacity="0.0"
     inkscape:pagecheckerboard="0"
     inkscape:deskcolor="#d1d1d1"
     inkscape:zoom="1.3608769"
     inkscape:cx="532.37732"
     inkscape:cy="296.5"
     inkscape:window-width="1920"
     inkscape:window-height="1009"
     inkscape:window-x="-8"
     inkscape:window-y="-8"
     inkscape:window-maximized="1"
     inkscape:current-layer="svg3" />
  <title
     id="title1">2024 US presidential election results</title>
  <defs
     id="defs1">
    <style
       type="text/css"
       id="style1">
   #AL, #AK, #AR, #FL, #AZ, #GA, #ID, #IA, #IN, #KS, #KY, #LA, #MI, #MO, #MS, #MT, #NC, #ND, #NE, #OH, #OK, #PA, #SC, #SD, #TN, #TX, #UT, #WI, #WV, #WY {fill: #F07763;}
   #CA, #CO, #CT, #DC, #DE, #HI, #IL, #MD, #MA, #ME, #MN, #NH, #NJ, #NM, #NV, #NY, #OR, #RI, #VA, #VT, #WA {fill: #698DC5;}
</style>
  </defs>
  <g
     id="outlines"
     class="state">
    <path
       id="AK"
       d="M161.1 453.7l-.3 85.4 1.6 1 3.1.2 1.5-1.1h2.6l.2 2.9 7 6.8.5 2.6 3.4-1.9.6-.2.3-3.1 1.5-1.6 1.1-.2 1.9-1.5 3.1 2.1.6 2.9 1.9 1.1 1.1 2.4 3.9 1.8 3.4 6 2.7 3.9 2.3 2.7 1.5 3.7 5 1.8 5.2 2.1 1 4.4.5 3.1-1 3.4-1.8 2.3-1.6-.8-1.5-3.1-2.7-1.5-1.8-1.1-.8.8 1.5 2.7.2 3.7-1.1.5-1.9-1.9-2.1-1.3.5 1.6 1.3 1.8-.8.8s-.8-.3-1.3-1c-.5-.6-2.1-3.4-2.1-3.4l-1-2.3s-.3 1.3-1 1c-.6-.3-1.3-1.5-1.3-1.5l1.8-1.9-1.5-1.5v-5h-.8l-.8 3.4-1.1.5-1-3.7-.6-3.7-.8-.5.3 5.7v1.1l-1.5-1.3-3.6-6-2.1-.5-.6-3.7-1.6-2.9-1.6-1.1v-2.3l2.1-1.3-.5-.3-2.6.6-3.4-2.4-2.6-2.9-4.8-2.6-4-2.6 1.3-3.2V542l-1.8 1.6-2.9 1.1-3.7-1.1-5.7-2.4h-5.5l-.6.5-6.5-3.9-2.1-.3-2.7-5.8-3.6.3-3.6 1.5.5 4.5 1.1-2.9 1 .3-1.5 4.4 3.2-2.7.6 1.6-3.9 4.4-1.3-.3-.5-1.9-1.3-.8-1.3 1.1-2.7-1.8-3.1 2.1-1.8 2.1-3.4 2.1-4.7-.2-.5-2.1 3.7-.6v-1.3l-2.3-.6 1-2.4 2.3-3.9v-1.8l.2-.8 4.4-2.3 1 1.3h2.7l-1.3-2.6-3.7-.3-5 2.7-2.4 3.4-1.8 2.6-1.1 2.3-4.2 1.5-3.1 2.6-.3 1.6 2.3 1 .8 2.1-2.7 3.2-6.5 4.2-7.8 4.2-2.1 1.1-5.3 1.1-5.3 2.3 1.8 1.3-1.5 1.5-.5 1.1-2.7-1-3.2.2-.8 2.3h-1l.3-2.4-3.6 1.3-2.9 1-3.4-1.3-2.9 1.9h-3.2l-2.1 1.3-1.6.8-2.1-.3-2.6-1.1-2.3.6-1 1-1.6-1.1v-1.9l3.1-1.3 6.3.6 4.4-1.6 2.1-2.1 2.9-.6 1.8-.8 2.7.2 1.6 1.3 1-.3 2.3-2.7 3.1-1 3.4-.6 1.3-.3.6.5h.8l1.3-3.7 4-1.5 1.9-3.7 2.3-4.5 1.6-1.5.3-2.6-1.6 1.3-3.4.6-.6-2.4-1.3-.3-1 1-.2 2.9-1.5-.2-1.5-5.8-1.3 1.3-1.1-.5-.3-1.9-4 .2-2.1 1.1-2.6-.3 1.5-1.5.5-2.6-.6-1.9 1.5-1 1.3-.2-.6-1.8v-4.4l-1-1-.8 1.5h-6.1l-1.5-1.3-.6-3.9-2.1-3.6v-1l2.1-.8.2-2.1 1.1-1.1-.8-.5-1.3.5-1.1-2.7 1-5 4.5-3.2 2.6-1.6 1.9-3.7 2.7-1.3 2.6 1.1.3 2.4 2.4-.3 3.2-2.4 1.6.6 1 .6h1.6l2.3-1.3.8-4.4s.3-2.9 1-3.4c.6-.5 1-1 1-1l-1.1-1.9-2.6.8-3.2.8-1.9-.5-3.6-1.8-5-.2-3.6-3.7.5-3.9.6-2.4-2.1-1.8-1.9-3.7.5-.8 6.8-.5h2.1l1 1h.6l-.2-1.6 3.9-.6 2.6.3 1.5 1.1-1.5 2.1-.5 1.5 2.7 1.6 5 1.8 1.8-1-2.3-4.4-1-3.2 1-.8-3.4-1.9-.5-1.1.5-1.6-.8-3.9-2.9-4.7-2.4-4.2 2.9-1.9h3.2l1.8.6 4.2-.2 3.7-3.6 1.1-3.1 3.7-2.4 1.6 1 2.7-.6 3.7-2.1 1.1-.2 1 .8 4.5-.2 2.7-3.1h1.1l3.6 2.4 1.9 2.1-.5 1.1.6 1.1 1.6-1.6 3.9.3.3 3.7 1.9 1.5 7.1.6 6.3 4.2 1.5-1 5.2 2.6 2.1-.6 1.9-.8 4.8 1.9zM46 482.6l2.1 5.3-.2 1-2.9-.3-1.8-4-1.8-1.5H39l-.2-2.6 1.8-2.4 1.1 2.4 1.5 1.5zm-2.6 33.5l3.7.8 3.7 1 .8 1-1.6 3.7-3.1-.2-3.4-3.6zM22.7 502l1.1 2.6 1.1 1.6-1.1.8-2.1-3.1V502zM9 575.1l3.4-2.3 3.4-1 2.6.3.5 1.6 1.9.5 1.9-1.9-.3-1.6 2.7-.6 2.9 2.6-1.1 1.8-4.4 1.1-2.7-.5-3.7-1.1-4.4 1.5-1.6.3zm48.9-4.5l1.6 1.9 2.1-1.6-1.5-1.3zm2.9 3l1.1-2.3 2.1.3-.8 1.9h-2.4zm23.6-1.9l1.5 1.8 1-1.1-.8-1.9zm8.8-12.5l1.1 5.8 2.9.8 5-2.9 4.4-2.6-1.6-2.4.5-2.4-2.1 1.3-2.9-.8 1.6-1.1 1.9.8 3.9-1.8.5-1.5-2.4-.8.8-1.9-2.7 1.9-4.7 3.6-4.8 2.9zm42.3-19.8l2.4-1.5-1-1.8-1.8 1z" />
    <path
       id="HI"
       d="M233.1 519.3l1.9-3.6 2.3-.3.3.8-2.1 3.1zm10.2-3.7l6.1 2.6 2.1-.3 1.6-3.9-.6-3.4-4.2-.5-4 1.8zm30.7 10l3.7 5.5 2.4-.3 1.1-.5 1.5 1.3 3.7-.2 1-1.5-2.9-1.8-1.9-3.7-2.1-3.6-5.8 2.9zm20.2 8.9l1.3-1.9 4.7 1 .6-.5 6.1.6-.3 1.3-2.6 1.5-4.4-.3zm5.3 5.2l1.9 3.9 3.1-1.1.3-1.6-1.6-2.1-3.7-.3zm7-1.2l2.3-2.9 4.7 2.4 4.4 1.1 4.4 2.7v1.9l-3.6 1.8-4.8 1-2.4-1.5zm16.6 15.6l1.6-1.3 3.4 1.6 7.6 3.6 3.4 2.1 1.6 2.4 1.9 4.4 4 2.6-.3 1.3-3.9 3.2-4.2 1.5-1.5-.6-3.1 1.8-2.4 3.2-2.3 2.9-1.8-.2-3.6-2.6-.3-4.5.6-2.4-1.6-5.7-2.1-1.8-.2-2.6 2.3-1 2.1-3.1.5-1-1.6-1.8z" />
    <path
       id="AL"
       d="M628.5 466.4l.6.2 1.3-2.7 1.5-4.4 2.3.6 3.1 6v1l-2.7 1.9 2.7.3 5.2-2.5-.3-7.6-2.5-1.8-2-2 .4-4 10.5-1.5 25.7-2.9 6.7-.6 5.6.1-.5-2.2-1.5-.8-.9-1.1 1-2.6-.4-5.2-1.6-4.5.8-5.1 1.7-4.8-.2-1.7-1.8-.7-.5-3.6-2.7-3.4-2-6.5-1.4-6.7-1.8-5-3.8-16-3.5-7.9-.8-5.6.1-2.2-9 .8-23.4 2.2-12.2.8-.2 6.4.2 16.7-.7 31-.3 14.1 2.8 18.8 1.6 14.7z" />
    <path
       id="AR"
       d="M587.3 346.1l-6.4-.7.9-3.1 3.1-2.6.6-2.3-1.8-2.9-31.9 1.2-23.3.7-23.6.3 1.5 6.9.1 8.5 1.4 10.9.3 38.2 2.1 1.6 3-1.2 2.9 1.2.4 10.1 25.2-.2 26.8-.8.9-1.9-.3-3.8-1.7-3.1 1.5-1.4-1.4-2.2.7-2.4 1.1-5.9 2.7-2.3-.8-2.2 4-5.6 2.5-1.1-.1-1.7-.5-1.7 2.9-5.8 2.5-1.1.2-3.3 2.1-1.4.9-4.1-1.4-4 4.2-2.4.3-2.1 1.2-4.2.9-3.1z" />
    <path
       id="AZ"
       d="M135.1 389.7l-.3 1.5.5 1 18.9 10.7 12.1 7.6 14.7 8.6 16.8 10 12.3 2.4 25.4 2.7 6-39.6 7-53.1 4.4-31-24.6-3.6-60.7-11-.2 1.1-2.6 16.5-2.1 3.8-2.8-.2-1.2-2.6-2.6-.4-1.2-1.1-1.1.1-2.1 1.7-.3 6.8-.3 1.5-.5 12.5-1.5 2.4-.4 3.3 2.8 5 1.1 5.5.7 1.1 1.1.9-.4 2.4-1.7 1.2-3.4 1.6-1.6 1.8-1.6 3.6-.5 4.9-3 2.9-1.9.9-.1 5.8-.6 1.6.5.8 3.9.4-.9 3-1.7 2.4-3.7.4z" />
    <path
       id="CA"
       d="M122.7 385.9l-19.7-2.7-10-1.5-.5-1.8v-9.4l-.3-3.2-2.6-4.2-.8-2.3-3.9-4.2-2.9-4.7-2.7-.2-3.2-.8-.3-1 1.5-.6-.6-3.2-1.5-2.1-4.8-.8-3.9-2.1-1.1-2.3-2.6-4.8-2.9-3.1H57l-3.9-2.1-4.5-1.8-4.2-.5-2.4-2.7.5-1.9 1.8-7.1.8-1.9v-2.4l-1.6-1-.5-2.9-1.5-2.6-3.4-5.8-1.3-3.1-1.5-4.7-1.6-5.3-3.2-4.4-.5-2.9.8-3.9h1.1l2.1-1.6 1.1-3.6-1-2.7-2.7-.5-1.9-2.6-2.1-3.7-.2-8.2.6-1.9.6-2.3.5-2.4-5.7-6.3V236l.3-.5.3-3.2-1.3-4-2.3-4.8-2.7-4.5-1.8-3.9 1-3.7.6-5.8 1.8-3.1.3-6.5-1.1-3.6-1.6-4.2L14 184l.8-3.2 1.5-4.2 1.8-.8.3-1.1 3.1-2.6 5.2-11.8.2-7.4 1.69-4.9 38.69 11.8 25.6 6.6-8 31.3-8.67 33.1L88.84 250 131 312.3l17.1 26.1-.4 3.1 2.8 5.2 1.1 5.4 1 1.5.7.6-.2 1.4-1.4 1-3.4 1.6-1.9 2.1-1.7 3.9-.5 4.7-2.6 2.5-2.3 1.1-.1 6.2-.6 1.9 1 1.7 3 .3-.4 1.6-1.4 2-3.9.6zM48.8 337l1.3 1.5-.2 1.3-3.2-.1-.6-1.2-.6-1.5zm1.9 0l1.2-.6 3.6 2.1 3.1 1.2-.9.6-4.5-.2-1.6-1.6zm20.7 19.8l1.8 2.3.8 1 1.5.6.6-1.5-1-1.8-2.7-2-1.1.2v1.2zm-1.4 8.7l1.8 3.2 1.2 1.9-1.5.2-1.3-1.2s-.7-1.5-.7-1.9v-2.2z" />
    <path
       id="CO"
       d="M380.2 235.5l-36-3.5-79.1-8.6-2.2 22.1-7 50.4-1.9 13.7 34 3.9 37.5 4.4 34.7 3 14.3.6z" />
    <path
       id="CT"
       d="M852 190.9l3.6-3.2 1.9-2.1.8.6 2.7-1.5 5.2-1.1 7-3.5-.6-4.2-.8-4.4-1.6-6-4.3 1.1-21.8 4.7.6 3.1 1.5 7.3v8.3l-.9 2.1 1.7 2.2z" />
    <path
       id="DE"
       d="M834.4 247.2l-1 .5-3.6-2.4-1.8-4.7-1.9-3.6-2.3-1-2.1-3.6.5-2 .5-2.3.1-1.1-.6.1-1.7 1-2 1.7-.2.3 1.4 4.1 2.3 5.6 3.7 16.1 5-.3 6-1.1z" />
    <path
       id="FL"
       d="M750.2 445.2l-5.2-.7-.7.8 1.5 4.4-.4 5.2-4.1-1-.2-2.8H737l-5.3.7-32.4 1.9-8.2-.3-1.7-1.7-2.5-4.2H681l-6.6.5-35.4 4.2-.3 2.8 1.6 1.6 2.9 2 .3 8.4 3.3-.6 6-2.1 6-.5 4.4-.6 7.6 1.8 8.1 3.9 1.6 1.5 2.9 1.1 1.6 1.9.3 2.7 3.2-1.3h3.9l3.6-1.9 3.7-3.6 3.1.2.5-1.1-.8-1 .2-1.9 4-.8h2.6l2.9 1.5 4.2 1.5 2.4 3.7 2.7 1 1.1 3.4 3.4 1.6 1.6 2.6 1.9.6 5.2 1.3 1.3 3.1 3 3.7v9.5l-1.5 4.7.3 2.7 1.3 4.8 1.8 4 .8-.5 1.5-4.5-2.6-1-.3-.6 1.6-.6 4.5 1 .2 1.6-3.2 5.5-2.1 2.4 3.6 3.7 2.6 3.1 2.9 5.3 2.9 3.9 2.1 5 1.8.3 1.6-2.1 1.8 1.1 2.6 4 .6 3.6 3.1 4.4.8-1.3 3.9.3 3.6 2.3 3.4 5.2.8 3.4.3 2.9 1.1 1 1.3.5 2.4-1 1.5-1.6 3.9-.2 3.1-1.5 2.7-3.2-.5-1.9-.3-2.4.6-1.9-.3-1.9 2.4-1.3.3-3.4-.6-1.8-.5-12-1.3-7.6-4.5-8.2-3.6-5.8-2.6-5.3-2.9-2.9-2.9-7.4.7-1.4 1.1-1.3-1.6-2.9-4-3.7-4.8-5.5-3.7-6.3-5.3-9.4-3.7-9.7-2.3-7.3zm17.7 132.7l2.4-.6 1.3-.2 1.5-2.3 2.3-1.6 1.3.5 1.7.3.4 1.1-3.5 1.2-4.2 1.5-2.3 1.2zm13.5-5l1.2 1.1 2.7-2.1 5.3-4.2 3.7-3.9 2.5-6.6 1-1.7.2-3.4-.7.5-1 2.8-1.5 4.6-3.2 5.3-4.4 4.2-3.4 1.9z" />
    <path
       id="GA"
       d="M750.2 444.2l-5.6-.7-1.4 1.6 1.6 4.7-.3 3.9-2.2-.6-.2-3h-5.2l-5.3.7-32.3 1.9-7.7-.3-1.4-1.2-2.5-4.3-.8-3.3-1.6-.9-.5-.5.9-2.2-.4-5.5-1.6-4.5.8-4.9 1.7-4.8-.2-2.5-1.9-.7-.4-3.2-2.8-3.5-1.9-6.2-1.5-7-1.7-4.8-3.8-16-3.5-8-.8-5.3.1-2.3 3.3-.3 13.6-1.6 18.6-2 6.3-1.1.5 1.4-2.2.9-.9 2.2.4 2 1.4 1.6 4.3 2.7 3.2-.1 3.2 4.7.6 1.6 2.3 2.8.5 1.7 4.7 1.8 3 2.2 2.3 3 2.3 1.3 2 1.8 1.4 2.7 2.1 1.9 4.1 1.8 2.7 6 1.7 5.1 2.8.7 2.1 1.9 2 5.7 2.9 1.6 1.7-.8.4 1.2-3.3 6.2.5 2.6-1.5 4.2-2.3 10 .8 6.3z" />
    <path
       id="IA"
       d="M556.8 183.6l2.1 2.1.3.7-2 3 .3 4 2.6 4.1 3.1 1.6 2.4.3.9 1.8.2 2.4 2.5 1 .9 1.1.5 1.6 3.8 3.3.6 1.9-.7 3-1.7 3.7-.6 2.4-2.1 1.6-1.6.5-5.7 1.5-1.6 4.8.8 1.8 1.7 1.5-.2 3.5-1.9 1.4-.7 1.8v2.4l-1.4.4-1.7 1.4-.5 1.7.4 1.7-1.3 1-2.3-2.7-1.4-2.8-8.3.8-10 .6-49.2 1.2-1.6-4.3-.4-6.7-1.4-4.2-.7-5.2-2.2-3.7-1-4.6-2.7-7.8-1.1-5.6-1.4-1.9-1.3-2.9 1.7-3.8 1.2-6.1-2.7-2.2-.3-2.4.7-2.4 1.8-.3 61.1-.6 21.2-.7z" />
    <path
       id="ID"
       d="M175.3 27.63l-4.8 17.41L166 65.9l-3.4 16.22-.4 9.67 1.2 4.44 3.5 2.66-.2 3.91-3.9 4.4-4.5 6.6-.9 2.9-1.2 1.1-1.8.8-4.3 5.3-.4 3.1-.4 1.1.6 1 2.6-.1 1.1 2.3-2.4 5.8-1.2 4.2-8.8 35.3 20.7 4.5 39.5 7.9 34.8 6.1 4.9-29.2 3.8-24.1-2.7-2.4-.4-2.6-.8-1.1-2.1 1-.7 2.6-3.2.5-3.9-1.6-3.8.1-2.5.7-3.4-1.5-2.4.2-2.4 2-2-1.1-.7-4 .7-2.9-2.5-2.9-3.3-2.6-2.7-13.1-.1-4.7-.3-.1-.2.4-5.1 3.5-1.7-.2-2.9-3.4-.2-3.1 7-17.13-.4-1.94-3.4-1.15-.6-1.18-2.6-3.46-4.6-10.23-3.2-1.53-2-4.95 1.3-4.63-3.2-7.58 4.4-21.52z" />
    <path
       id="IL"
       d="M618.7 214.3l-.8-2.6-1.3-3.7-1.6-1.8-1.5-2.6-.4-5.5-15.9 1.8-17.4 1h-12.3l.2 2.1 2.2.9 1.1 1.4.4 1.4 3.9 3.4.7 2.4-.7 3.3-1.7 3.7-.8 2.7-2.4 1.9-1.9.6-5.2 1.3-1.3 4.1.6 1.1 1.9 1.8-.2 4.3-2.1 1.6-.5 1.3v2.8l-1.8.6-1.4 1.2-.4 1.2.4 2-1.6 1.3-.9 2.8.3 3.9 2.3 7 7 7.6 5.7 3.7v4.4l.7 1.2 6.6.6 2.7 1.4-.7 3.5-2.2 6.2-.8 3 2 3.7 6.4 5.3 4.8.8 2.2 5.1 2 3.4-.9 2.8 1.5 3.8 1.7 2.1 1.6-.3 1-2.2 2.4-1.7 2.8-1 6.1 2.5.5-.2v-1.1l-1.2-2.7.4-2.8 2.4-1.6 3.4-1.2-.5-1.3-.8-2 1.2-1.3 1-2.7v-4l.4-4.9 2.5-3 1.8-3.8 2.5-4-.5-5.3-1.8-3.2-.3-3.3.8-5.3-.7-7.2-1.1-15.8-1.4-15.3-.9-11.7z" />
    <path
       id="IN"
       d="M622.9 216.1l1.5 1 1.1-.3 2.1-1.9 2.5-1.8 14.3-1.1 18.4-1.8 1.6 15.5 4.9 42.6-.6 2.9 1.3 1.6.2 1.3-2.3 1.6-3.6 1.7-3.2.4-.5 4.8-4.7 3.6-2.9 4 .2 2.4-.5 1.4h-3.5l-1.4-1.7-5.2 3 .2 3.1-.9.2-.5-.9-2.4-1.7-3.6 1.5-1.4 2.9-1.2-.6-1.6-1.8-4.4.5-5.7 1-2.5 1.3v-2.6l.4-4.7 2.3-2.9 1.8-3.9 2.7-4.2-.5-5.8-1.8-3.1-.3-3.2.8-5.3-.7-7.1-.9-12.6-2.5-30.1z" />
    <path
       id="KS"
       d="M485.9 259.5l-43.8-.6-40.6-1.2-21.7-.9-4.3 64.8 24.3 1 44.7 2.1 46.3.6 12.6-.3.7-35-1.2-11.1-2.5-2-2.4-3-2.3-3.6.6-3 1.7-1.4v-2.1l-.8-.7-2.6-.2-3.5-3.4z" />
    <path
       id="KY"
       d="M607.2 331.8l12.6-.7.1-4.1h4.3l30.4-3.2 45.1-4.3 5.6-3.6 3.9-2.1.1-1.9 6-7.8 4.1-3.6 2.1-2.4-3.3-2-2.5-2.7-3-3.8-.5-2.2-2.6-1.4-.9-1.9-.2-6.1-2.6-2-1.9-1.1-.5-2.3-1.3.2-2 1.2-2.5 2.7-1.9-1.7-2.5-.5-2.4 1.4h-2.3l-1.8-2-5.6-.1-1.8-4.5-2.9-1.5-2.1.8-4.2.2-.5 2.1 1.2 1.5.3 2.1-2.8 2-3.8 1.8-2.6.4-.5 4.5-4.9 3.6-2.6 3.7.2 2.2-.9 2.3-4.5-.1-1.3-1.3-3.9 2.2.2 3.3-2.4.6-.8-1.4-1.7-1.2-2.7 1.1-1.8 3.5-2.2-1-1.4-1.6-3.7.4-5.6 1-2.8 1.3-1.2 3.4-1 1 1.5 3.7-4.2 1.4-1.9 1.4-.4 2.2 1.2 2.4v2.2l-1.6.4-6.1-2.5-2.3.9-2 1.4-.8 1.8 1.7 2.4-.9 1.8-.1 3.3-2.4 1.3-2.1 1.7z" />
    <path
       id="LA"
       d="M526.9 485.9l8.1-.3 10.3 3.6 6.5 1.1 3.7-1.5 3.2 1.1 3.2 1 .8-2.1-3.2-1.1-2.6.5-2.7-1.6.8-1.5 3.1-1 1.8 1.5 1.8-1 3.2.6 1.5 2.4.3 2.3 4.5.3 1.8 1.8-.8 1.6-1.3.8 1.6 1.6 8.4 3.6 3.6-1.3 1-2.4 2.6-.6 1.8-1.5 1.3 1 .8 2.9-2.3.8.6.6 3.4-1.3 2.3-3.4.8-.5-2.1-.3.8-1.6-.2-1.5 2.1-.5 1.1-1.3.6.8.6 3.1 4.2.6 4 1.9 1 1.5h2.9l1.1 1 2.3-3.1V493h-1.3l-3.4-2.7-5.8-.8-3.2-2.3 1.1-2.7 2.3.3.2-.6-1.8-1v-.5h3.2l1.8-3.1-1.3-1.9-.3-2.7-1.5.2-1.9 2.1-.6 2.6-3.1-.6-1-1.8 1.8-1.9 1.9-1.7-2.2-6.5-3.4-3.4 1-7.3-.2-.5-1.3.2-33.1 1.4-.8-2.4.8-8.5 8.6-14.8-.9-2.6 1.4-.4.4-2-2.2-2 .1-1.9-2-4.5-.4-5.1.1-.7-26.4.8-25.2.1.4 9.7.7 9.5.5 3.7 2.6 4.5.9 4.4 4.3 6 .3 3.1.6.8-.7 8.3-2.8 4.6 1.2 2.4-.5 2.6-.8 7.3-1.3 3 .2 3.7z" />
    <path
       id="MA"
       d="M887.5 172.5l-.5-2.3.8-1.5 2.9-1.5.8 3.1-.5 1.8-2.4 1.5v1l1.9-1.5 3.9-4.5 3.9-1.9 4.2-1.5-.3-2.4-1-2.9-1.9-2.4-1.8-.8-2.1.2-.5.5 1 1.3 1.5-.8 2.1 1.6.8 2.7-1.8 1.8-2.3 1-3.6-.5-3.9-6-2.3-2.6h-1.8l-1.1.8-1.9-2.6.3-1.5 2.4-5.2-2.9-4.4-3.7 1.8-1.8 2.9-18.3 4.7-13.8 2.5-.6 10.6.7 4.9 22-4.8 11.2-2.8 2 1.6 3.4 4.3 2.9 4.7zm12.5 1.4l2.2-.7.5-1.7 1 .1 1 2.3-1.3.5-3.9.1zm-9.4.8l2.3-2.6h1.6l1.8 1.5-2.4 1-2.2 1z" />
    <path
       id="MD"
       d="M834.8 264.1l1.7-3.8.5-4.8-6.3 1.1-5.8.3-3.8-16.8-2.3-5.5-1.5-4.6-22.2 4.3-37.6 7.6 2 10.4 4.8-4.9 2.5-.7 1.4-1.5 1.8-2.7 1.6.7 2.6-.2 2.6-2.1 2-1.5 2.1-.6 1.5 1.1 2.7 1.4 1.9 1.8 1.3 1.4 4.8 1.6-.6 2.9 5.8 2.1 2.1-2.6 3.7 2.5-2.1 3.3-.7 3.3-1.8 2.6v2.1l.3.8 2 1.3 3.4 1.1 4.3-.1 3.1 1 2.1.3 1-2.1-1.5-2.1v-1.8l-2.4-2.1-2.1-5.5 1.3-5.3-.2-2.1-1.3-1.3s1.5-1.6 1.5-2.3c0-.6.5-2.1.5-2.1l1.9-1.3 1.9-1.6.5 1-1.5 1.6-1.3 3.7.3 1.1 1.8.3.5 5.5-2.1 1 .3 3.6.5-.2 1.1-1.9 1.6 1.8-1.6 1.3-.3 3.4 2.6 3.4 3.9.5 1.6-.8 3.2 4.2 1 .4zm-14.5.2l1.1 2.5.2 1.8 1.1 1.9s.9-.9.9-1.2c0-.3-.7-3.1-.7-3.1l-.7-2.3z" />
    <path
       id="ME"
       d="M865.8 91.9l1.5.4v-2.6l.8-5.5 2.6-4.7 1.5-4-1.9-2.4v-6l.8-1 .8-2.7-.2-1.5-.2-4.8 1.8-4.8 2.9-8.9 2.1-4.2h1.3l1.3.2v1.1l1.3 2.3 2.7.6.8-.8v-1l4-2.9 1.8-1.8 1.5.2 6 2.4 1.9 1 9.1 29.9h6l.8 1.9.2 4.8 2.9 2.3h.8l.2-.5-.5-1.1 2.8-.5 1.9 2.1 2.3 3.7V85l-2.1 4.7-1.9.6-3.4 3.1-4.8 5.5h-1.3c-.6 0-1-2.1-1-2.1l-1.8.2-1 1.5-2.4 1.5-1 1.5 1.6 1.5-.5.6-.5 2.7-1.9-.2v-1.6l-.3-1.3-1.5.3-1.8-3.2-2.1 1.3 1.3 1.5.3 1.1-.8 1.3.3 3.1.2 1.6-1.6 2.6-2.9.5-.3 2.9-5.3 3.1-1.3.5-1.6-1.5-3.1 3.6 1 3.2-1.5 1.3-.2 4.4-1.1 6.3-2.2-.9-.5-3.1-4-1.1-.2-2.5-11.7-37.43zm36.5 15.6l1.5-1.5 1.4 1.1.6 2.4-1.7.9zm6.7-5.9l1.8 1.9s1.3.1 1.3-.2c0-.3.2-2 .2-2l.9-.8-.8-1.8-2 .7z" />
    <path
       id="MI"
       d="M644.5 211l19.1-1.9.2 1.1 9.9-1.5 12-1.7.1-.6.2-1.5 2.1-3.7 2-1.7-.2-5.1 1.6-1.6 1.1-.3.2-3.6 1.5-3 1.1.6.2.6.8.2 1.9-1-.4-9.1-3.2-8.2-2.3-9.1-2.4-3.2-2.6-1.8-1.6 1.1-3.9 1.8-1.9 5-2.7 3.7-1.1.6-1.5-.6s-2.6-1.5-2.4-2.1c.2-.6.5-5 .5-5l3.4-1.3.8-3.4.6-2.6 2.4-1.6-.3-10-1.6-2.3-1.3-.8-.8-2.1.8-.8 1.6.3.2-1.6-2.6-2.2-1.3-2.6h-2.6l-4.5-1.5-5.5-3.4h-2.7l-.6.6-1-.5-3.1-2.3-2.9 1.8-2.9 2.3.3 3.6 1 .3 2.1.5.5.8-2.6.8-2.6.3-1.5 1.8-.3 2.1.3 1.6.3 5.5-3.6 2.1-.6-.2v-4.2l1.3-2.4.6-2.4-.8-.8-1.9.8-1 4.2-2.7 1.1-1.8 1.9-.2 1 .6.8-.6 2.6-2.3.5v1.1l.8 2.4-1.1 6.1-1.6 4 .6 4.7.5 1.1-.8 2.4-.3.8-.3 2.7 3.6 6 2.9 6.5 1.5 4.8-.8 4.7-1 6-2.4 5.2-.3 2.7-3.2 3.1zm-33.3-72.4l-1.3-1.1-1.8-10.4-3.7-1.3-1.7-2.3-12.6-2.8-2.8-1.1-8.1-2.2-7.8-1-3.9-5.3.7-.5 2.7-.8 3.6-2.3v-1l.6-.6 6-1 2.4-1.9 4.4-2.1.2-1.3 1.9-2.9 1.8-.8 1.3-1.8 2.3-2.3 4.4-2.4 4.7-.5 1.1 1.1-.3 1-3.7 1-1.5 3.1-2.3.8-.5 2.4-2.4 3.2-.3 2.6.8.5 1-1.1 3.6-2.9 1.3 1.3h2.3l3.2 1 1.5 1.1 1.5 3.1 2.7 2.7 3.9-.2 1.5-1 1.6 1.3 1.6.5 1.3-.8h1.1l1.6-1 4-3.6 3.4-1.1 6.6-.3 4.5-1.9 2.6-1.3 1.5.2v5.7l.5.3 2.9.8 1.9-.5 6.1-1.6 1.1-1.1 1.5.5v7l3.2 3.1 1.3.6 1.3 1-1.3.3-.8-.3-3.7-.5-2.1.6-2.3-.2-3.2 1.5h-1.8l-5.8-1.3-5.2.2-1.9 2.6-7 .6-2.4.8-1.1 3.1-1.3 1.1-.5-.2-1.5-1.6-4.5 2.4h-.6l-1.1-1.6-.8.2-1.9 4.4-1 4-3.2 6.9zm-29.6-56.5l1.8-2.1 2.2-.8 5.4-3.9 2.3-.6.5.5-5.1 5.1-3.3 1.9-2.1.9zm86.2 32.1l.6 2.5 3.2.2 1.3-1.2s-.1-1.5-.4-1.6c-.3-.2-1.6-1.9-1.6-1.9l-2.2.2-1.6.2-.3 1.1z" />
    <path
       id="MN"
       d="M464.6 66.79l-.6 3.91v10.27l1.6 5.03 1.9 3.32.5 9.93 1.8 13.45 1.8 7.3.4 6.4v5.3l-1.6 1.8-1.8 1.3v1.5l.9 1.7 4.1 3.5.7 3.2v35.9l60.3-.6 21.2-.7-.5-6-1.8-2.1-7.2-4.6-3.6-5.3-3.4-.9-2-2.8h-3.2l-3.5-3.8-.5-7 .1-3.9 1.5-3-.7-2.7-2.8-3.1 2.2-6.1 5.4-4 1.2-1.4-.2-8 .2-3 2.6-3 3.8-2.9 1.3-.2 4.5-5 1.8-.8 2.3-3.9 2.4-3.6 3.1-2.6 4.8-2 9.2-4.1 3.9-1.8.6-2.3-4.4.4-.7 1.1h-.6l-1.8-3.1-8.9.3-1 .8h-1l-.5-1.3-.8-1.8-2.6.5-3.2 3.2-1.6.8h-3.1l-2.6-1v-2.1l-1.3-.2-.5.5-2.6-1.3-.5-2.9-1.5.5-.5 1-2.4-.5-5.3-2.4-3.9-2.6h-2.9l-1.3-1-2.3.6-1.1 1.1-.3 1.3h-4.8v-2.1l-6.3-.3-.3-1.5h-4.8l-1.6-1.6-1.5-6.1-.8-5.5-1.9-.8-2.3-.5-.6.2-.3 8.2-30.1-.03z" />
    <path
       id="MO"
       d="M593.1 338.7l.5-5.9 4.2-3.4 1.9-1v-2.9l.7-1.6-1.1-1.6-2.4.3-2.1-2.5-1.7-4.5.9-2.6-2-3.2-1.8-4.6-4.6-.7-6.8-5.6-2.2-4.2.8-3.3 2.2-6 .6-3-1.9-1-6.9-.6-1.1-1.9v-4.1l-5.3-3.5-7.2-7.8-2.3-7.3-.5-4.2.7-2.4-2.6-3.1-1.2-2.4-7.7.8-10 .6-48.8 1.2 1.3 2.6-.1 2.2 2.3 3.6 3 3.9 3.1 3 2.6.2 1.4 1.1v2.9l-1.8 1.6-.5 2.3 2.1 3.2 2.4 3 2.6 2.1 1.3 11.6-.8 40 .5 5.7 23.7-.2 23.3-.7 32.5-1.3 2.2 3.7-.8 3.1-3.1 2.5-.5 1.8 5.2.5 4.1-1.1z" />
    <path
       id="MS"
       d="M604.3 472.5l2.6-4.2 1.8.8 6.8-1.9 2.1.3 1.5.8h5.2l.4-1.6-1.7-14.8-2.8-19 1-45.1-.2-16.7.2-6.3-4.8.3-19.6 1.6-13 .4-.2 3.2-2.8 1.3-2.6 5.1.5 1.6.1 2.4-2.9 1.1-3.5 5.1.8 2.3-3 2.5-1 5.7-.6 1.9 1.6 2.5-1.5 1.4 1.5 2.8.3 4.2-1.2 2.5-.2.9.4 5 2 4.5-.1 1.7 2.3 2-.7 3.1-.9.3.6 1.9-8.6 15-.8 8.2.5 1.5 24.2-.7 8.2-.7 1.9-.3.6 1.4-1 7.1 3.3 3.3 2.2 6.4z" />
    <path
       id="MT"
       d="M361.1 70.77l-5.3 57.13-1.3 15.2-59.1-6.6-49-7.1-1.4 11.2-1.9-1.7-.4-2.5-1.3-1.9-3.3 1.5-.7 2.5-2.3.3-3.8-1.6-4.1.1-2.4.7-3.2-1.5-3 .2-2.1 1.9-.9-.6-.7-3.4.7-3.2-2.7-3.2-3.3-2.5-2.5-12.6-.1-5.3-1.6-.8-.6 1-4.5 3.2-1.2-.1-2.3-2.8-.2-2.8 7-17.15-.6-2.67-3.5-1.12-.4-.91-2.7-3.5-4.6-10.41-3.2-1.58-1.8-4.26 1.3-4.63-3.2-7.57 4.4-21.29L222 37.3l18.4 3.4 32.3 5.3 29.3 4 29.2 3.5 30.8 3.07z" />
    <path
       id="NC"
       d="M786.7 357.7L774 350l-3.1-.8-16.6 2.1-1.6-3-2.8-2.2-16.7.5-7.4.9-9.2 4.5-6.8 2.7-6.5 1.2-13.4 1.4.1-4.1 1.7-1.3 2.7-.7.7-3.8 3.9-2.5 3.9-1.5 4.5-3.7 4.4-2.3.7-3.2 4.1-3.8.7 1 2.5.2 2.4-3.6 1.7-.4 2.6.3 1.8-4 2.5-2.4.5-1.8.1-3.5 4.4.1 38.5-5.6 57.5-12.3 2 4.8 3.6 6.5 2.4 2.4.6 2.3-2.4.2.8.6-.3 4.2-2.6 1.3-.6 2.1-1.3 2.9-3.7 1.6-2.4-.3-1.5-.2-1.6-1.3.3 1.3v1h1.9l.8 1.3-1.9 6.3h4.2l.6 1.6 2.3-2.3 1.3-.5-1.9 3.6-3.1 4.8H828l-1.1-.5-2.7.6-5.2 2.4-6.5 5.3-3.4 4.7-1.9 6.5-.5 2.4-4.7.5-5.1 1.5zm49.3-26.2l2.6-2.5 3.2-2.6 1.5-.6.2-2-.6-6.1-1.5-2.3-.6-1.9.7-.2 2.7 5.5.4 4.4-.2 3.4-3.4 1.5-2.8 2.4-1.1 1.2z" />
    <path
       id="ND"
       d="M471 126.4l-.4-6.2-1.8-7.3-1.8-13.61-.5-9.7-1.9-3.18-1.6-5.32V70.68l.6-3.85-1.8-5.54-28.6-.59-18.6-.6-26.5-1.3-25.2-2.16-.9 14.42-4.7 50.94 56.8 3.9 56.9 1.7z" />
    <path
       id="NE"
       d="M470.3 204.3l-1-2.3-.5-1.6-2.9-1.6-4.8-1.5-2.2-1.2-2.6.1-3.7.4-4.2 1.2-6-4.1-2.2-2-10.7.6-41.5-2.4-35.6-2.2-4.3 43.7 33.1 3.3-1.4 21.1 21.7 1 40.6 1.2 43.8.6h4.5l-2.2-3-2.6-3.9.1-2.3-1.4-2.7-1.9-5.2-.4-6.7-1.4-4.1-.5-5-2.3-3.7-1-4.7-2.8-7.9-1-5.3z" />
    <path
       id="NH"
       d="M881.7 141.3l1.1-3.2-2.7-1.2-.5-3.1-4.1-1.1-.3-3-11.7-37.48-.7.08-.6 1.6-.6-.5-1-1-1.5 1.9-.2 2.29.5 8.41 1.9 2.8v4.3l-3.9 4.8-2.4.9v.7l1.1 1.9v8.6l-.8 9.2-.2 4.7 1 1.4-.2 4.7-.5 1.5 1 1.1 5.1-1.2 13.8-3.5 1.7-2.9 4-1.9z" />
    <path
       id="NJ"
       d="M823.7 228.3l.1-1.5 2.7-1.3 1.7-2.8 1.7-2.4 3.3-3.2v-1.2l-6.1-4.1-1-2.7-2.7-.3-.1-.9-.7-2.2 2.2-1.1.2-2.9-1.3-1.3.2-1.2 1.9-3.1V193l2.5-3.1 5.6 2.5 6.4 1.9 2.5 1.2.1 1.8-.5 2.7.4 4.5-2.1 1.9-1.1 1 .5.5 2.7-.3 1.1-.8 1.6 3.4.2 9.4.6 1.1-1.1 5.5-3.1 6.5-2.7 4-.8 4.8-2.1 2.4h-.8l-.3-2.7.8-1-.2-1.5-4-.6-4.8-2.3-3.2-2.9-1-2z" />
    <path
       id="NM"
       d="M270.2 429.4l-16.7-2.6-1.2 9.6-15.8-2 6-39.7 7-53.2 4.4-30.9 34 3.9 37.4 4.4 32 2.8-.3 10.8-1.4-.1-7.4 97.7-28.4-1.8-38.1-3.7.7 6.3z" />
    <path
       id="NV"
       d="M123.1 173.6l38.7 8.5 26 5.2-10.6 53.1-5.4 29.8-3.3 15.5-2.1 11.1-2.6 16.4-1.7 3.1-1.6-.1-1.2-2.6-2.8-.5-1.3-1.1-1.8.1-.9.8-1.8 1.3-.3 7.3-.3 1.5-.5 12.4-1.1 1.8-16.7-25.5-42.1-62.1-12.43-19 8.55-32.6 8.01-31.3z"
       style="fill: rgb(240, 119, 99);" />
    <path
       id="NY"
       d="M843.4 200l.5-2.7-.2-2.4-3-1.5-6.5-2-6-2.6-.6-.4-2.7-.3-2-1.5-2.1-5.9-3.3-.5-2.4-2.4-38.4 8.1-31.6 6-.5-6.5 1.6-1.2 1.3-1.1 1-1.6 1.8-1.1 1.9-1.8.5-1.6 2.1-2.7 1.1-1-.2-1-1.3-3.1-1.8-.2-1.9-6.1 2.9-1.8 4.4-1.5 4-1.3 3.2-.5 6.3-.2 1.9 1.3 1.6.2 2.1-1.3 2.6-1.1 5.2-.5 2.1-1.8 1.8-3.2 1.6-1.9h2.1l1.9-1.1.2-2.3-1.5-2.1-.3-1.5 1.1-2.1v-1.5h-1.8l-1.8-.8-.8-1.1-.2-2.6 5.8-5.5.6-.8 1.5-2.9 2.9-4.5 2.7-3.7 2.1-2.4 2.4-1.8 3.1-1.2 5.5-1.3 3.2.2 4.5-1.5 7.4-2.2.7 4.9 2.4 6.5.8 5-1 4.2 2.6 4.5.8 2-.9 3.2 3.7 1.7 2.7 10.2v5.8l-.6 10.9.8 5.4.7 3.6 1.5 7.3v8.1l-1.1 2.3 2.1 2.7.5.9-1.9 1.8.3 1.3 1.3-.3 1.5-1.3 2.3-2.6 1.1-.6 1.6.6 2.3.2 7.9-3.9 2.9-2.7 1.3-1.5 4.2 1.6-3.4 3.6-3.9 2.9-7.1 5.3-2.6 1-5.8 1.9-4 1.1-1-.4z" />
    <path
       id="OH"
       d="M663.8 211.2l1.7 15.5 4.8 41.1 3.9-.2 2.3-.8 3.6 1.8 1.7 4.2 5.4.1 1.8 2h1.7l2.4-1.4 3.1.5 1.5 1.3 1.8-2 2.3-1.4 2.4-.4.6 2.7 1.6 1 2.6 2 .8.2 2-.1 1.2-.6v-2.1l1.7-1.5.1-4.8 1.1-4.2 1.9-1.3 1 .7 1 1.1.7.2.4-.4-.9-2.7v-2.2l1.1-1.4 2.5-3.6 1.3-1.5 2.2.5 2.1-1.5 3-3.3 2.2-3.7.2-5.4.5-5V230l-1.2-3.2 1.2-1.8 1.3-1.2-.6-2.8-4.3-25.6-6.2 3.7-3.9 2.3-3.4 3.7-4 3.9-3.2.8-2.9.5-5.5 2.6-2.1.2-3.4-3.1-5.2.6-2.6-1.5-2.2-1.3z" />
    <path
       id="OK"
       d="M411.9 334.9l-1.8 24.3-.9 18 .2 1.6 4 3.6 1.7.9h.9l.9-2.1 1.5 1.9 1.6.1.3-.2.2-1.1 2.8 1.4-.4 3.5 3.8.5 2.5 1 4.2.6 2.3 1.6 2.5-1.7 3.5.7 2.2 3.1 1.2.1v2.3l2.1.7 2.5-2.1 1.8.6 2.7.1.7 2.3 4.4 1.8 1.7-.3 1.9-4.2h1.3l1.1 2.1 4.2.8 3.4 1.3 3 .8 1.6-.7.7-2.7h4.5l1.9.9 2.7-1.9h1.4l.6 1.4h3.6l2-1.8 2.3.6 1.7 2.2 3 1.7 3.4.9 1.9 1.2-.3-37.6-1.4-10.9-.1-8.6-1.5-6.6-.6-6.8.1-4.3-12.6.3-46.3-.5-44.7-2.1-41.5-1.8-.4 10.7z" />
    <path
       id="OR"
       d="M67.44 158.9l28.24 7.2 27.52 6.5 17 3.7 8.8-35.1 1.2-4.4 2.4-5.5-.7-1.3-2.5.1-1.3-1.8.6-1.5.4-3.3 4.7-5.7 1.9-.9.9-.8.7-2.7.8-1.1 3.9-5.7 3.7-4 .2-3.26-3.4-2.49-1.2-4.55-13.1-3.83L132.9 85l-14.8.37-1.1-1.31-5.1 1.84-4.5-.48-2.4-1.58-1.3.54-4.68-.29-1.96-1.43-4.84-1.77-1.1-.07-4.45-1.27-1.76 1.52-6.26-.24-5.31-3.85.21-9.28-2.05-3.5-4.1-.6-.7-2.5-2.4-.5-5.8 2.1-2.3 6.5-3.2 10-3.2 6.5-5 14.1-6.5 13.6-8.1 12.6-1.9 2.9-.8 8.6-1.3 6 2.71 3.5z" />
    <path
       id="PA"
       d="M736.6 192.2l1.3-.5 5.7-5.5.7 6.9 33.5-6.5 36.9-7.8 2.3 2.3 3.1.4 2 5.6 2.4 1.9 2.8.4.1.1-2.6 3.2v3.1l-1.9 3.1-.2 1.9 1.3 1.3-.2 1.9-2.4 1.1 1 3.4.2 1.1 2.8.3.9 2.5 5.9 3.9v.4l-3.1 3-1.5 2.2-1.7 2.8-2.7 1.2-1.4.3-2.1 1.3-1.6 1.4-22.4 4.3L757 241l-11.3 1.4-3.9.7-5.1-22.4-4.3-25.9z" />
    <path
       id="RI"
       d="M873.6 175.7l-.8-4.4-1.6-6 5.7-1.5 1.5 1.3 3.4 4.3 2.8 4.4-2.8 1.4-1.3-.2-1.1 1.8-2.4 1.9-2.8 1.1z" />
    <path
       id="SC"
       d="M759 413.6l-2.1-1-1.9-5.6-2.5-2.3-2.5-.5-1.5-4.6-3-6.5-4.2-1.8-1.9-1.8-1.2-2.6-2.4-2-2.3-1.3-2.2-2.9-3.2-2.4-4.4-1.7-.4-1.4-2.3-2.8-.5-1.5-3.8-5.4-3.4.1-3.9-2.5-1.2-1.2-.2-1.4.6-1.6 2.7-1.3-.8-2 6.4-2.7 9.2-4.5 7.1-.9 16.4-.5 2.3 1.9 1.8 3.5 4.6-.8 12.6-1.5 2.7.8 12.5 7.4 10.1 8.3-5.3 5.4-2.6 6.1-.5 6.3-1.6.8-1.1 2.7-2.4.6-2.1 3.6-2.7 2.7-2.3 3.4-1.6.8-3.6 3.4-2.9.2 1 3.2-5 5.3-2.3 1.6z" />
    <path
       id="SD"
       d="M471 181.1l-.9 3.2.4 3 2.6 2-1.2 5.4-1.8 4.1 1.5 3.3.7 1.1-1.3.1-.7-1.6-.6-2-3.3-1.8-4.8-1.5-2.5-1.3-2.9.1-3.9.4-3.8 1.2-5.3-3.8-2.7-2.4-10.9.8-41.5-2.4-35.6-2.2L354 162l2.8-34 .4-5 56.9 3.9 56.9 1.7v2.7l-1.3 1.5-2 1.5-.1 2.2 1.1 2.2 4.1 3.4.5 2.7v35.9z" />
    <path
       id="TN"
       d="M670.8 359.6l-13.1 1.2-23.3 2.2-37.6 2.7-11.8.4.9-.6.9-4.5-1.2-3.6 3.9-2.3.4-2.5 1.2-4.3 3-9.5.5-5.6.3-.2 12.3-.2 13.6-.8.1-3.9 3.5-.1 30.4-3.3 54-5.2 10.3-1.5 7.6-.2 2.4-1.9 1.3.3-.1 3.3-.4 1.6-2.4 2.2-1.6 3.6-2-.4-2.4.9-2.2 3.3-1.4-.2-.8-1.2-1.1.4-4.3 4-.8 3.1-4.2 2.2-4.3 3.6-3.8 1.5-4.4 2.8-.6 3.6-2.5.5-2 1.7-.2 4.8z" />
    <path
       id="TX"
       d="M282.8 425.6l37 3.6 29.3 1.9 7.4-97.7 54.4 2.4-1.7 23.3-1 18 .2 2 4.4 4.1 2 1.1h1.8l.5-1.2.7.9 2.4.2 1.1-.6v-.2l1 .5-.4 3.7 4.5.7 2.4.9 4.2.7 2.6 1.8 2.8-1.9 2.7.6 2.2 3.1.8.1v2.1l3.3 1.1 2.5-2.1 1.5.5 2.1.1.6 2.1 5.2 2 2.3-.5 1.9-4h.1l1.1 1.9 4.6.9 3.4 1.3 3.2 1 2.4-1.2.7-2.3h3.6l2.1 1 3-2h.4l.5 1.4h4.7l1.9-1.8 1.3.4 1.7 2.1 3.3 1.9 3.4 1 2.5 1.4 2.7 2 3.1-1.2 2.1.8.7 20 .7 9.5.6 4.1 2.6 4.4.9 4.5 4.2 5.9.3 3.1.6.8-.7 7.7-2.9 4.8 1.3 2.6-.5 2.4-.8 7.2-1.3 3 .3 4.2-5.6 1.6-9.9 4.5-1 1.9-2.6 1.9-2.1 1.5-1.3.8-5.7 5.3-2.7 2.1-5.3 3.2-5.7 2.4-6.3 3.4-1.8 1.5-5.8 3.6-3.4.6-3.9 5.5-4 .3-1 1.9 2.3 1.9-1.5 5.5-1.3 4.5-1.1 3.9-.8 4.5.8 2.4 1.8 7 1 6.1 1.8 2.7-1 1.5-3.1 1.9-5.7-3.9-5.5-1.1-1.3.5-3.2-.6-4.2-3.1-5.2-1.1-7.6-3.4-2.1-3.9-1.3-6.5-3.2-1.9-.6-2.3.6-.6.3-3.4-1.3-.6-.6-1 1.3-4.4-1.6-2.3-3.2-1.3-3.4-4.4-3.6-6.6-4.2-2.6.2-1.9-5.3-12.3-.8-4.2-1.8-1.9-.2-1.5-6-5.3-2.6-3.1v-1.1l-2.6-2.1-6.8-1.1-7.4-.6-3.1-2.3-4.5 1.8-3.6 1.5-2.3 3.2-1 3.7-4.4 6.1-2.4 2.4-2.6-1-1.8-1.1-1.9-.6-3.9-2.3v-.6l-1.8-1.9-5.2-2.1-7.4-7.8-2.3-4.7v-8.1l-3.2-6.5-.5-2.7-1.6-1-1.1-2.1-5-2.1-1.3-1.6-7.1-7.9-1.3-3.2-4.7-2.3-1.5-4.4-2.6-2.9-1.7-.5zm174.4 141.7l-.6-7.1-2.7-7.2-.6-7 1.5-8.2 3.3-6.9 3.5-5.4 3.2-3.6.6.2-4.8 6.6-4.4 6.5-2 6.6-.3 5.2.9 6.1 2.6 7.2.5 5.2.2 1.5z" />
    <path
       id="UT"
       d="m228.4 305.9 24.6 3.6 1.9-13.7 7-50.5 2.3-22-32.2-3.5 2.2-13.1 1.8-10.6-34.7-6.1-12.5-2.5-10.6 52.9-5.4 30-3.3 15.4-1.7 9.2z" />
    <path
       id="VA"
       d="M834.7 265.2l-.2 2.8-2.9 3.8-.4 4.6.5 3.4-1.8 5-2.2 1.9-1.5-4.6.4-5.4 1.6-4.2.7-3.3-.1-1.7zm-60.3 44.6l-38.6 5.6-4.8-.1-2.2-.3-2.5 1.9-7.3.1-10.3 1.6-6.7.6 4.1-2.6 4.1-2.3v-2.1l5.7-7.3 4.1-3.7 2.2-2.5 3.6 4.3 3.8.9 2.7-1 2-1.5 2.4 1.2 4.6-1.3 1.7-4.4 2.4.7 3.2-2.3 1.6.4 2.8-3.2.2-2.7-.8-1.2 4.8-10.5 1.8-5.2.5-4.7.7-.2 1.1 1.7 1.5 1.2 3.9-.2 1.7-8.1 3-.6.8-2.6 2.8-2.2 1.1-2.1 1.8-4.3.1-4.6 3.6 1.4 6.6 3.1.3-5.2 3.4 1.2-.6 2.9 8.6 3.1 1.4 1.8-.8 3.3-1.3 1.3-.5 1.7.5 2.4 2 1.3 3.9 1.4 2.9 1 4.9.9 2.2 2.1 3.2.4.9 1.2-.4 4.7 1.4 1.1-.5 1.9 1.2.8-.2 1.4-2.7-.1.1 1.6 2.3 1.5.1 1.4 1.8 1.8.5 2.5-2.6 1.4 1.6 1.5 5.8-1.7 3.7 6.2z" />
    <path
       id="VT"
       d="M832.7 111.3l2.4 6.5.8 5.3-1 3.9 2.5 4.4.9 2.3-.7 2.6 3.3 1.5 2.9 10.8v5.3l11.5-2.1-1-1.1.6-1.9.2-4.3-1-1.4.2-4.7.8-9.3v-8.5l-1.1-1.8v-1.6l2.8-1.1 3.5-4.4v-3.6l-1.9-2.7-.3-5.79-26.1 6.79z" />
    <path
       id="WA"
       d="M74.5 67.7l-2.3-4.3-4.1-.7-.4-2.4-2.5-.6-2.9-.5-1.8 1-2.3-2.9.3-2.9 2.7-.3 1.6-4-2.6-1.1.2-3.7 4.4-.6-2.7-2.7-1.5-7.1.6-2.9v-7.9l-1.8-3.2 2.3-9.4 2.1.5 2.4 2.9 2.7 2.6 3.2 1.9 4.5 2.1 3.1.6 2.9 1.5 3.4 1 2.3-.2V22l1.3-1.1 2.1-1.3.3 1.1.3 1.8-2.3.5-.3 2.1 1.8 1.5 1.1 2.4.6 1.9 1.5-.2.2-1.3-1-1.3-.5-3.2.8-1.8-.6-1.5V19l1.8-3.6-1.1-2.6L91.9 8l.3-.8 1.4-.8L98 7.9l9.7 2.7 8.6 1.9 20 5.7 23 5.7 15 3.49-4.8 17.56-4.5 20.83-3.4 16.25-.4 9.18-12.9-3.72-15.3-3.47-14.5.32-1.1-1.53-5.7 2.09-3.9-.42-2.6-1.79-1.7.65-4.15-.25-1.72-1.32-5.16-1.82-1.18-.16-4.8-1.39-1.92 1.65-5.65-.25-4.61-3.35zm9.6-55.4l2-.2.5 1.4 1.5-1.6h2.3l.8 1.5-1.5 1.7.6.8-.7 2-1.4.4s-.9.1-.9-.2c0-.3 1.5-2.6 1.5-2.6l-1.7-.6-.3 1.5-.7.6-1.5-2.3z" />
    <path
       id="WI"
       d="M541.4 109.9l2.9.5 2.9-.6 7.4-3.2 2.9-1.9 2.1-.8 1.9 1.5-1.1 1.1-1.9 3.1-.6 1.9 1 .6 1.8-1 1.1-.2 2.7.8.6 1.1 1.1.2.6-1.1 4 5.3 8.2 1.2 8.2 2.2 2.6 1.1 12.3 2.6 1.6 2.3 3.6 1.2L609 138l1.6 1.4 1.5.9-1.1 2.3-1.8 1.6-2.1 4.7-1.3 2.4.2 1.8 1.5.3 1.1-1.9 1.5-.8.8-2.3 1.9-1.8 2.7-4 4.2-6.3.8-.5.3 1-.2 2.3-2.9 6.8-2.7 5.7-.5 3.2-.6 2.6.8 1.3-.2 2.7-1.9 2.4-.5 1.8.6 3.6.6 3.4-1.5 2.6-.8 2.9-1 3.1 1.1 2.4.6 6.1 1.6 4.5-.2 3-15.9 1.8-17.5 1H567l-.7-1.5-2.9-.4-2.6-1.3-2.3-3.7-.3-3.6 2-2.9-.5-1.4-2.1-2.2-.8-3.3-.6-6.8-2.1-2.5-7-4.5-3.8-5.4-3.4-1-2.2-2.8h-3.2l-2.9-3.3-.5-6.5.1-3.8 1.5-3.1-.8-3.2-2.5-2.8 1.8-5.4 5.2-3.8 1.6-1.9-.2-8.1.2-2.8 2.4-2.8z" />
    <path
       id="WV"
       d="M758.9 254.3l5.8-6 2.6-.8 1.6-1.5 1.5-2.2 1.1.3 3.1-.2 4.6-3.6 1.5-.5 1.3 1 2.6 1.2 3 3-.4 4.3-5.4-2.6-4.8-1.8-.1 5.9-2.6 5.7-2.9 2.4-.8 2.3-3 .5-1.7 8.1-2.8.2-1.1-1-1.2-2-2.2.5-.5 5.1-1.8 5.1-5 11 .9 1.4-.1 2-2.2 2.5-1.6-.4-3.1 2.3-2.8-.8-1.8 4.9-3.8 1-2.5-1.3-2.5 1.9-2.3.7-3.2-.8-3.8-4.5-3.5-2.2-2.5-2.5-2.9-3.7-.5-2.3-2.8-1.7-.6-1.3-.2-5.6.3.1 2.4-.2 1.8-1V275l1.7-1.5.1-5.2.9-3.6 1.1-.7.4.3 1 1.1 1.7.5 1.1-1.3-1-3.1v-1.6l3.1-4.6 1.2-1.3 2 .5 2.6-1.8 3.1-3.4 2.4-4.1.2-5.6.5-4.8v-4.9l-1.1-3 .9-1.3.8-.7 4.3 19.3 4.3-.8 11.2-1.3z" />
    <path
       id="WY"
       d="m353 161.9-1.5 25.4-4.4 44-2.7-0.3-83.3-9.1-27.9-3 2-12 6.9-41 3.8-24.2 1.3-11.2 48.2 7 59.1 6.5z" />
    <path
       id="DC"
       d="m807 260-6.26-3.18-5.97 3.6 1.09-6.93-5.27-4.56 6.93-1.11 2.71-6.42 3.19 6.25 6.94 0.59-4.96 4.97z"
       stroke="#fff" />
  </g>
  <g
     id="statesplit">
    <circle
       id="ME-2"
       cx="889"
       cy="66"
       r="14"
       fill="#F07763" />
  </g>
  <g
     id="g1">
    <circle
       id="NE-2"
       cx="457"
       cy="236"
       r="14"
       fill="#698DC5" />
  </g>
  <g
     id="text"
     font-family="Helvetica Neue"
     font-weight="bold">
    <g
       font-size="28"
       id="g2">
      <text
         id="AKn"
         x="110"
         y="504"
         style="white-space: pre;">3</text>
      <text
         id="HIn"
         x="261"
         y="565"
         style="white-space: pre;">4</text>
      <text
         id="WAn"
         x="105"
         y="62"
         style="white-space: pre;">12</text>
      <text
         id="ORn"
         x="88"
         y="136"
         style="white-space: pre;">8</text>
      <text
         id="CAn"
         x="55"
         y="298"
         style="white-space: pre;">54</text>
      <text
         id="NVn"
         x="120"
         y="242"
         style="white-space: pre;">6</text>
      <text
         id="AZn"
         x="182"
         y="368"
         style="white-space: pre;">11</text>
      <text
         id="UTn"
         x="209"
         y="265"
         style="white-space: pre;">6</text>
      <text
         id="IDn"
         x="183"
         y="162"
         style="white-space: pre;">4</text>
      <text
         id="MTn"
         x="270"
         y="100"
         style="white-space: pre;">4</text>
      <text
         id="WYn"
         x="290"
         y="191"
         style="white-space: pre;">3</text>
      <text
         id="COn"
         x="297.22601"
         y="281.55011"
         style="white-space: pre;">10</text>
      <text
         id="NMn"
         x="290"
         y="381"
         style="white-space: pre;">5</text>
      <text
         id="TXn"
         x="410"
         y="458"
         style="white-space: pre;">40</text>
      <text
         id="OKn"
         x="451"
         y="370"
         style="white-space: pre;">7</text>
      <text
         id="KSn"
         x="434"
         y="303"
         style="white-space: pre;">6</text>
      <text
         id="NEn"
         x="411"
         y="232"
         style="white-space: pre;">4</text>
      <text
         id="SDn"
         x="405"
         y="170"
         style="white-space: pre;">3</text>
      <text
         id="NDn"
         x="405"
         y="103"
         style="white-space: pre;">3</text>
      <text
         id="MNn"
         x="484"
         y="129"
         style="white-space: pre;">10</text>
      <text
         id="WIn"
         x="561"
         y="163"
         style="white-space: pre;">10</text>
      <text
         id="ILn"
         x="579"
         y="261"
         style="white-space: pre;">19</text>
      <text
         id="IAn"
         x="513"
         y="224"
         style="white-space: pre;">6</text>
      <text
         id="MOn"
         x="525"
         y="306"
         style="white-space: pre;">10</text>
      <text
         id="ARn"
         x="534"
         y="384"
         style="white-space: pre;">6</text>
      <text
         id="LAn"
         x="536"
         y="452"
         style="white-space: pre;">8</text>
      <text
         id="MSn"
         x="587"
         y="428"
         style="white-space: pre;">6</text>
      <text
         id="ALn"
         x="641"
         y="422"
         style="white-space: pre;">9</text>
      <text
         id="GAn"
         x="697"
         y="419"
         style="white-space: pre;">16</text>
      <text
         id="FLn"
         x="743"
         y="505"
         style="white-space: pre;">30</text>
      <text
         id="SCn"
         x="745"
         y="380"
         style="white-space: pre;">9</text>
      <text
         id="NCn"
         x="763"
         y="342"
         style="white-space: pre;">16</text>
      <text
         id="TNn"
         x="633"
         y="353"
         style="white-space: pre;">11</text>
      <text
         id="KYn"
         x="666"
         y="311"
         style="white-space: pre;">8</text>
      <text
         id="INn"
         x="630"
         y="262"
         style="white-space: pre;">11</text>
      <text
         id="MIn"
         x="645"
         y="193"
         style="white-space: pre;">15</text>
      <text
         id="OHn"
         x="685"
         y="248"
         style="white-space: pre;">17</text>
      <text
         id="WVn"
         x="730"
         y="281"
         style="white-space: pre;">4</text>
      <text
         id="VAn"
         x="767"
         y="294"
         style="white-space: pre;">13</text>
      <text
         id="PAn"
         x="764"
         y="220"
         style="white-space: pre;">19</text>
      <text
         id="NYn"
         x="798"
         y="167"
         style="white-space: pre;">28</text>
      <text
         id="MEn"
         x="874"
         y="110"
         style="white-space: pre;">3</text>
      <text
         id="DemL"
         x="855"
         y="425"
         style="white-space:pre">Mamdani</text>
      <text
         id="RepL"
         x="855"
         y="458"
         style="white-space:pre">Vance</text>
    </g>
    <text
       font-size="25"
       id="ME-2n"
       x="880"
       y="75"
       style="white-space: pre;">1</text>
    <text
       font-size="25"
       id="NE-2n"
       x="448"
       y="245"
       style="white-space: pre;">1</text>
    <g
       font-size="22"
       id="g3">
      <text
         id="NHn"
         x="800"
         y="58"
         style="white-space: pre;">NH 4</text>
      <text
         id="VTn"
         x="790"
         y="82"
         style="white-space: pre;">VT 3</text>
      <text
         id="MAn"
         x="927"
         y="164"
         style="white-space: pre;">MA 11</text>
      <text
         id="RIn"
         x="925"
         y="199"
         style="white-space: pre;">RI 4</text>
      <text
         id="CTn"
         x="918"
         y="228"
         style="white-space: pre;">CT 7</text>
      <text
         id="NJn"
         x="898"
         y="260"
         style="white-space: pre;">NJ 14</text>
      <text
         id="DEn"
         x="891"
         y="284"
         style="white-space: pre;">DE 3</text>
      <text
         id="MDn"
         x="883"
         y="305"
         style="white-space: pre;">MD 10</text>
      <text
         id="DCn"
         x="864"
         y="327"
         style="white-space: pre;">DC 3</text>
    </g>
  </g>
  <rect
     id="Dem"
     x="828"
     y="406"
     height="19"
     width="19"
     fill="#698DC5"
     stroke="#000000"
     stroke-width="0.8" />
  <rect
     id="Rep"
     x="828"
     y="439"
     height="19"
     width="19"
     fill="#F07763"
     stroke="#000000"
     stroke-width="0.8" />
  <path
     id="lines"
     d="m844 62 13 29m-25-5 8 17m49 50 34 3m-41 22 41 12m-57-6 51 33m-72 13 50 22m-58-2 51 26m-55-15 46 33m-79-43 61 61"
     stroke="#000"
     stroke-width="1.6" />
  <path
     id="frames"
     d="M215,493v55l36,45 M0,425h147l68,68h85l54,54v46"
     fill="none"
     stroke="#A9A9A9"
     stroke-width="2" />
  <path
     style="fill:#698dc5;fill-opacity:1;stroke-width:0.73482"
     d="m 168.17482,296.53732 c -2.38994,6.30282 -1.60874,14.01943 -4.98587,20.05255 -1.48584,1.7745 -3.69883,0.90388 -4.38165,-0.96875 -1.8531,-2.04724 -6.97835,-3.22563 -6.95783,0.91135 -0.82125,8.17323 -0.85486,16.52842 -2.67377,24.5031 1.18423,3.34219 3.09311,6.44914 3.59517,10.01623 1.65822,1.76055 2.60196,4.94633 -0.12199,6.27611 -4.20042,1.9963 -7.2719,6.15794 -7.1846,10.87304 -1.49051,3.15544 -5.59609,4.89508 -5.10068,8.99581 -1.46704,3.76885 0.4525,4.28091 3.55641,4.18934 0.45401,3.21986 -2.36412,6.34509 -5.6274,6.38375 -1.6889,0.58886 -4.44557,3.33445 -1.61029,4.47207 15.66218,9.65221 31.58052,18.9179 47.33405,28.43748 8.97167,5.78567 18.88292,10.45838 29.70947,11.03944 6.91308,0.57377 14.09874,2.13851 20.88277,2.04043 3.01263,-9.31763 3.36698,-19.38938 5.13936,-29.02078 4.38909,-31.28207 8.69194,-62.59502 12.72452,-93.91523 -17.96988,-3.10392 -36.26659,-5.79583 -54.28038,-9.23372 -9.99377,-1.732 -19.9647,-3.71726 -30.01729,-5.05222 z m 23.17555,51.59959 c 4.36663,0.17768 1.04374,8.04489 2.07529,11.55764 -0.21678,4.18161 1.75829,10.55508 -4.57684,8.61835 -0.83218,-4.31668 0.74362,-9.85092 -0.71903,-14.21705 -1.42696,0.96249 -3.71378,2.58327 -4.49647,-0.29278 0.68487,-2.909 4.8576,-5.35225 7.71705,-5.66616 z m 15.40109,0 c 4.41137,0.14299 1.07152,8.0372 2.10543,11.55764 -0.21678,4.18161 1.75829,10.55508 -4.57684,8.61835 -0.85252,-4.30921 0.77742,-9.89617 -0.73482,-14.22997 -1.41217,0.31796 -2.71792,2.90602 -3.98985,0.5626 -2.97784,-1.94992 2.12925,-3.747 3.67698,-5.2887 1.05851,-0.65634 2.24876,-1.21559 3.5191,-1.21992 z"
     id="path18" />
  <path
     style="fill:#698dc5;fill-opacity:1;stroke-width:0.73482"
     d="m 94.044085,167.14722 c -5.674888,21.02808 -11.038611,42.4399 -16.54781,63.58206 23.643195,34.8006 46.451375,70.18403 70.782425,104.50666 1.57467,1.96224 1.35076,-2.38055 1.44525,-3.26651 0.47375,-6.12822 -0.35857,-12.7255 1.70214,-18.53986 2.89641,-2.30601 7.66551,-0.70425 9.4278,2.27622 2.86375,0.0796 2.58044,-4.48652 3.32535,-6.43541 6.79895,-40.32009 16.07967,-80.22756 22.58614,-120.60127 0.0661,-2.54133 -4.36062,-1.58117 -5.93356,-2.59165 -29.04611,-5.74217 -57.87571,-12.5916 -86.787735,-18.93024 z m 36.353515,54.6006 c 2.44203,-0.9402 3.76295,2.05997 2.28626,3.63535 -2.60513,-0.90413 -7.21684,0.65436 -7.34102,3.5923 2.65321,0.86565 6.64602,-1.0486 8.12608,2.42261 3.34339,4.60689 -0.62752,12.17007 -6.56459,10.85726 -5.70519,-0.67784 -6.35762,-7.47395 -5.67476,-12.02121 0.2774,-4.96877 4.05868,-8.82514 9.16803,-8.48631 z"
     id="path19" />
  <path
     style="fill:#698dc5;fill-opacity:1;stroke-width:0.73482"
     d="m 127.68508,232.46156 c -3.77961,0.41807 -1.83977,8.1554 1.50121,5.53985 1.96552,-1.58397 1.18074,-5.43964 -1.50121,-5.53985 z"
     id="path20" />
  <path
     style="fill:#698dc5;fill-opacity:1;stroke-width:0.73482"
     d="m 114.08086,433.55404 c -3.10112,4.71026 -9.19161,2.03513 -13.40186,4.64573 -2.898096,0.95045 -8.168357,-0.12923 -8.807802,3.96401 -1.476565,3.63085 -5.069661,5.79294 -9.00442,4.9055 -2.032353,-0.0489 -7.532979,-0.49631 -6.065138,3.10863 2.332485,4.05933 4.452183,8.25442 5.119344,12.88806 1.117938,1.7501 3.201409,2.99394 2.873262,5.3906 -0.128234,2.2555 3.428471,4.59788 1.778208,6.57606 -2.93722,0.0678 -7.02929,-0.83766 -8.64562,-3.56646 -0.156363,-1.45153 2.537205,-4.09892 -0.411901,-4.06878 -3.340971,-0.82095 -5.757202,1.97437 -9.018771,1.09649 -2.459094,-0.13343 -5.459723,-0.39565 -7.374037,1.22709 2.332505,2.72893 4.182055,6.06565 3.150255,9.72489 -0.168025,3.995 3.985185,5.80602 7.402741,5.57861 3.365855,1.02679 6.729759,2.92212 10.283178,1.17255 1.999229,-0.88633 3.165317,0.51749 2.078164,2.44701 -1.434814,2.55149 -0.661045,6.02196 -2.403953,8.27965 -2.694974,1.59205 -6.209397,-0.80275 -8.671454,1.72654 -1.500365,0.78129 -3.562328,0.56128 -3.714287,-1.35626 -2.40517,-2.33635 -5.601638,0.0559 -6.399539,2.67951 -2.91091,3.44275 -9.046849,5.63406 -8.305479,11.05962 0.526456,1.62152 3.810911,1.59577 2.299185,3.95253 -0.980848,1.70966 -3.131365,3.48498 -1.27876,5.50111 1.095473,2.47745 1.0094,6.79872 4.948555,6.07231 1.808833,0.45643 3.748745,-0.53759 5.19541,-0.93145 0.431695,2.30934 1.960298,5.7135 0.170788,7.6008 -2.542835,0.78153 -0.367559,4.05991 -2.068117,5.67334 0.792553,1.82114 4.072067,-0.0517 5.661848,0.35735 2.033087,-0.66479 2.202657,2.20001 4.329986,0.91997 1.689014,0.88899 0.604489,5.50427 2.955068,5.19541 -0.400867,-1.59641 1.582279,-4.39893 2.932105,-2.34655 1.300855,2.41896 4.104418,0.71487 5.422171,-0.19949 -1.315816,4.69459 -3.516058,9.91573 -7.577835,12.88663 -2.456927,0.71897 -2.599142,3.81167 -4.43045,4.94568 -4.452385,-0.98255 -8.475644,2.02526 -11.851848,4.32712 -4.12951,-2.67866 -9.158574,0.21209 -12.656993,2.63501 -3.71597,2.16838 -9.2865,-1.09751 -12.266619,2.3035 2.742527,1.89575 6.975908,1.14672 10.260216,1.20843 2.773393,-1.22687 6.015783,-1.15305 8.698722,-2.89623 1.947762,-0.37407 3.877026,1.26768 5.877127,0.0502 1.785185,-0.70954 4.101516,-1.71913 5.245642,0.27126 0.554164,-3.43453 8.260057,0.95919 7.332415,-3.79609 -0.11933,-2.22888 3.78467,-2.39486 5.324577,-3.22919 7.936727,-2.04432 15.187982,-6.56311 21.599696,-11.55046 1.90797,-1.24518 2.4042,-4.83417 -0.50088,-4.76341 -1.299352,-3.04146 3.29966,-4.84379 5.52981,-5.81973 4.46402,-3.73416 6.80112,-11.43867 13.71617,-11.23328 1.51851,-0.22097 4.26062,1.9941 3.07132,3.25216 -2.23185,0.78524 -3.58256,-2.36864 -5.59727,-0.36311 -3.01115,1.74302 -2.81135,5.741 -4.67156,8.41887 -1.30247,1.66125 2.6927,2.11989 0.49227,3.47029 -0.72546,0.43677 -4.10251,-0.0786 -2.35802,1.39358 3.68558,3.73897 7.60954,-1.66333 10.64341,-3.5435 1.96088,-1.89664 4.65361,-0.75409 6.94061,-0.38607 0.9681,0.70858 0.99902,3.61294 2.66085,1.90021 0.76835,-0.88728 4.00875,-3.05942 2.47141,-4.08314 -0.89851,0.59109 -2.24373,2.21314 -2.73405,0.21241 -1.39107,-2.08363 -1.98363,-5.5498 1.40936,-6.06514 2.36917,-1.07423 5.8694,-0.84163 6.31056,2.28771 0.8796,3.71264 5.07374,3.48469 7.6295,5.4279 5.58737,1.90147 11.6249,1.67637 17.0573,4.16925 2.02465,0.76718 4.09845,-2.47514 5.63171,-1.46534 -0.39946,1.66796 -2.28413,4.04601 0.27125,5.0074 4.54639,2.19872 8.24887,5.63191 12.23218,8.58391 0.92986,0.92108 4.91846,-0.34992 2.70965,1.55145 -2.72457,2.54419 2.44926,4.64678 2.41544,7.39843 -0.39546,3.09044 3.417,3.39752 4.27544,5.99195 1.90916,4.44351 3.28639,4.60199 2.86322,-0.28274 -0.30076,-1.66169 1.22313,-2.307 1.10079,-0.38319 0.53414,1.79516 1.44017,9.16476 2.68239,4.22091 0.13093,-1.44806 1.77185,-2.76659 1.60741,-0.28991 -0.17699,1.84759 0.33843,3.9152 1.19552,5.27721 -1.46768,1.00318 -1.35771,2.79624 0.47218,2.94502 1.71027,0.96299 1.94949,4.6089 3.84776,4.64717 0.14677,-1.04973 -1.04753,-3.78182 1.04626,-2.09539 1.97449,1.85244 4.28497,3.31919 3.36123,-0.55685 0.37237,-1.23376 -2.78132,-4.44349 -0.34445,-4.32282 3.0896,0.55947 4.79152,3.29279 6.68802,5.30018 3.41924,-0.45292 3.19654,-5.55991 2.77136,-8.17343 -0.11862,-6.39578 -8.50658,-5.0895 -11.55189,-9.20248 -4.45767,-6.8855 -8.3872,-14.3116 -15.05665,-19.3895 -1.63341,-1.73008 -2.45491,-6.096 -5.68768,-5.13656 -2.43872,0.93594 -3.55108,3.25383 -4.04725,5.56855 -1.15136,1.23283 -4.35046,2.96198 -4.61989,0.31718 -2.31506,-3.36102 -6.14846,-5.90522 -7.53048,-9.73349 -2.45301,-1.15146 -6.68603,0.92798 -7.95148,-0.88549 -0.31574,-28.62067 -0.34116,-57.32544 -0.83766,-85.89364 -3.60327,-1.65811 -7.49674,-4.80817 -11.62365,-2.88044 -2.73165,0.0314 -5.1002,-2.0468 -7.82613,-1.80978 -3.88927,-2.55643 -8.28823,-3.93915 -12.86366,-4.63568 -2.72267,-0.30785 -2.05098,-3.19547 -3.05983,-4.77633 -1.7587,-1.03169 -3.58476,0.45303 -4.88685,1.07926 -0.62173,-3.09518 -3.25587,-5.21163 -5.93883,-6.68083 z m 2.97516,50.01083 c 3.90149,-0.59241 8.05288,2.97207 6.17134,7.06117 -0.8724,1.48666 -2.85952,3.35307 -0.14496,4.32568 3.64604,3.46809 -0.41776,9.68066 -5.07342,9.07187 -2.46854,0.0188 -7.59267,1.38797 -7.21903,-2.65655 -0.45103,-3.41501 3.25103,-0.12422 4.96291,-0.69176 2.81975,0.81633 5.61914,-3.3809 2.42548,-4.79212 -2.12939,-0.12746 -6.05935,-0.46173 -3.96689,-3.5435 2.09891,-0.022 6.3152,-1.25183 4.92703,-4.05156 -1.84462,-2.17522 -4.31345,0.23947 -6.35074,-0.12916 -1.58296,-0.6177 -2.83558,-2.89908 -0.40042,-3.39137 1.46539,-0.73346 3.04244,-1.1843 4.6687,-1.2027 z"
     id="path21" />
  <path
     style="fill:#698dc5;fill-opacity:1;stroke-width:0.73482"
     d="m 99.790609,555.62319 c -2.840067,0.9077 -7.407765,2.96593 -5.779534,6.72389 0.02883,2.45353 2.640388,4.25944 4.617025,2.32072 2.01718,-1.83663 6.60809,-2.25447 7.10853,-5.3174 -0.63576,-3.00935 -3.94529,-2.51201 -5.946021,-3.72721 z"
     id="path22" />
  <path
     style="fill:#698dc5;fill-opacity:1;stroke-width:0.73482"
     d="m 105.55866,551.75821 c -2.11376,-0.50409 -5.57043,3.2913 -2.0308,3.54493 1.22281,-0.16946 5.63415,-1.34262 3.67554,-3.12155 -0.49992,-0.27191 -1.06989,-0.45747 -1.64474,-0.42338 z"
     id="path23" />
  <path
     style="fill:#698dc5;fill-opacity:1;stroke-width:0.73482"
     d="m 44.93455,516.77244 c -3.004727,0.47456 0.03997,3.99321 1.374917,4.74476 2.012561,2.19799 5.806014,-0.93002 4.46346,-3.13447 -1.78489,-0.87825 -3.826496,-1.59342 -5.838377,-1.61029 z"
     id="path24" />
  <path
     style="fill:#698dc5;fill-opacity:1;stroke-width:0.73482"
     d="m 40.186922,479.08706 c -2.035147,1.46885 -0.590257,4.09889 1.638993,4.32999 2.45092,0.87604 2.536693,6.01367 5.56569,4.8323 0.56449,-2.7209 -1.767702,-5.69663 -4.307023,-6.54449 -1.150057,-0.63408 -1.586936,-2.35984 -2.89766,-2.6178 z"
     id="path25" />
  <path
     style="fill:#698dc5;fill-opacity:1;stroke-width:0.73482"
     d="m 24.117033,570.45881 c -1.724399,0.68087 -1.6106,3.5671 -3.902298,3.78892 -2.124413,1.17197 2.152666,0.99278 2.904836,0.79797 1.579703,-0.0988 6.147446,-1.02115 3.461693,-3.14452 -0.649022,-0.67689 -1.447546,-1.49027 -2.464231,-1.44237 z"
     id="path26" />
  <path
     style="fill:#698dc5;fill-opacity:1;stroke-width:0.73482"
     d="m 16.480355,571.88109 c -1.872247,0.65505 -5.261543,1.05016 -5.938841,3.00243 2.452402,0.12446 5.126717,-0.73967 7.620891,-0.92426 1.052593,-0.90128 -0.677144,-2.37665 -1.68205,-2.07817 z"
     id="path27" />
  <path
     style="fill:#698dc5;fill-opacity:1;stroke-width:0.73482"
     d="m 190.34286,31.031807 c -2.66559,3.649335 -2.4508,9.005389 -3.72767,13.317309 -0.8947,4.064683 -2.35784,8.192029 0.41694,11.877195 2.37253,3.865178 -1.62977,9.063545 2.60031,12.157905 5.95269,3.922246 5.36352,13.526712 12.05708,16.675542 3.23631,0.399523 0.94335,4.906989 0.5521,6.777359 -1.3707,5.38789 -5.29601,10.423843 -4.89213,16.136973 0.22962,2.5292 2.97002,3.66503 4.7017,1.62752 1.20077,-1.12717 4.79832,-3.83596 5.19828,-0.63005 0.59721,7.1953 0.64177,15.7134 6.90616,20.57927 2.55877,2.16143 -0.0308,6.62989 2.49724,8.44757 2.52639,-2.81467 6.84816,-0.41022 10.13536,-0.68746 3.3833,-0.21792 6.80056,1.16962 10.04063,1.01325 1.01337,-1.78583 2.78791,-3.9297 4.91698,-3.86068 1.30904,2.13363 3.23108,9.22136 3.41353,2.99435 0.96907,-2.27516 -0.44919,-7.67181 2.15707,-7.98101 35.4952,5.09592 71.23068,9.8307 106.80094,13.42705 2.12425,-16.36831 2.90831,-32.96919 4.67042,-49.409905 0.91582,-12.189298 2.64183,-24.534243 2.83135,-36.647319 -53.79175,-5.336573 -107.48862,-12.36574 -160.37308,-23.72646 -3.6293,-0.708575 -7.24429,-1.554316 -10.90321,-2.088409 z m 90.04276,48.89569 c 3.9884,-0.172656 1.09963,6.456571 1.99174,9.440386 -0.35117,1.912702 0.65039,3.361188 2.53917,3.31133 1.1632,1.714598 -0.12396,3.400092 -1.98487,3.29234 -1.26272,1.309351 0.34853,4.755427 -2.60201,4.131927 -3.58231,0.83082 -0.42544,-4.860041 -3.91235,-4.371605 -1.7902,-0.479718 -6.7407,1.238299 -6.0924,-2.096822 2.19205,-4.829367 4.75258,-10.081546 8.86951,-13.522415 0.37712,-0.152007 0.78892,-0.182803 1.19121,-0.185141 z"
     id="path28" />
  <path
     style="fill:#698dc5;fill-opacity:1;stroke-width:0.73482"
     d="m 277.80083,86.957087 c -1.14196,1.98579 -5.90357,6.393948 -0.98454,5.445133 2.36095,-0.326951 1.57166,-3.919016 1.17542,-5.466661 z"
     id="path29" />
  <path
     style="fill:#698dc5;fill-opacity:1;stroke-width:0.73482"
     d="m 554.54249,180.27066 c -27.49479,1.47177 -55.2046,0.87075 -82.64432,1.77964 -1.64549,2.75389 0.44197,5.0582 1.94469,7.11283 0.20739,4.69088 -3.6875,9.91189 -0.16218,14.20126 2.39196,7.55481 4.12303,15.39683 7.3439,22.64453 1.8885,6.10725 1.51873,12.99185 4.23239,18.75657 14.56474,1.04655 29.27472,-0.37932 43.88353,-0.55561 7.75174,-0.049 15.62359,-0.92989 23.30517,-0.84801 1.82263,1.18733 2.17606,4.15281 3.86642,5.05907 0.13084,-3.13704 2.40384,-5.17693 4.11614,-7.39987 0.15396,-2.96721 5.19419,-6.1061 1.63469,-8.79632 -2.07696,-3.10044 -0.12601,-8.05133 3.90804,-8.15765 3.68086,-0.45939 6.67804,-2.87015 7.35107,-6.62487 1.06722,-2.9016 2.08456,-7.14094 -1.52562,-8.73317 -1.85374,-1.36839 -1.84818,-4.05181 -4.31563,-4.79068 -1.74485,-1.55165 -1.379,-5.05194 -4.51082,-4.94712 -4.99155,-1.60608 -7.55085,-8.34833 -4.21373,-12.59672 -0.5834,-2.04461 -2.85025,-3.4295 -2.88762,-5.74939 -0.31487,-0.38918 -0.87398,-0.37275 -1.32612,-0.35449 z m -31.14375,23.18128 c 2.78555,-0.83156 4.3259,4.87189 0.73195,3.93531 -1.89701,0.21053 -5.85367,0.93354 -5.75514,3.26937 2.94759,0.85207 7.8546,-0.40057 8.81785,3.63966 2.0395,4.50659 -1.41405,11.14103 -6.85594,9.96744 -4.19329,-0.57359 -7.05089,-4.89321 -6.12828,-9.09053 -0.52127,-5.25095 2.40632,-11.09255 8.09737,-11.60643 0.36063,-0.0645 0.72563,-0.10896 1.09219,-0.11482 z"
     id="path30" />
  <path
     style="fill:#698dc5;fill-opacity:1;stroke-width:0.73482"
     d="m 520.82113,214.74406 c -4.13431,0.006 -2.51347,6.80553 0.98885,5.73935 1.71576,-1.15499 2.12334,-6.40135 -0.98885,-5.73935 z"
     id="path31" />
  <path
     style="fill:#698dc5;fill-opacity:1;stroke-width:0.73482"
     d="m 559.6647,104.53967 c -6.22573,1.66331 -11.61021,6.96183 -18.46523,5.62454 -4.30121,0.6876 -2.77753,6.57512 -3.14308,9.57849 1.36376,3.99592 -2.17948,5.35602 -4.67299,7.48024 -2.58371,2.12577 -4.65286,6.41733 -1.78682,9.16804 2.18386,5.47371 -1.66741,11.84684 0.71185,17.27114 1.26824,2.66382 4.49592,2.07456 6.33209,3.78175 1.71507,2.63455 5.58232,2.73638 6.96357,5.87425 3.17878,4.79917 11.00796,6.16678 11.00365,12.91964 -0.11379,3.88355 2.17997,7.03069 3.45451,10.42669 -1.73796,2.43812 -2.0072,6.18129 0.23394,8.62983 1.36571,2.40104 4.1606,2.7533 6.39667,3.49758 1.90515,1.7621 5.55181,0.55605 8.01411,0.96876 12.60528,-0.45689 25.41377,-0.56758 37.77581,-3.21341 1.74835,-1.94138 -1.02273,-5.11026 -0.96875,-7.40561 0.0574,-2.94543 -1.15788,-5.76237 -1.23283,-8.59108 1.29819,-4.76863 2.93399,-9.5832 1.89876,-14.59307 0.73195,-3.58427 2.43671,-7.02178 2.31353,-10.82425 0.55421,-6.44734 4.93423,-11.85631 6.19574,-18.02463 -3.03276,1.50192 -4.74657,5.73077 -7.06706,8.31379 -2.27346,2.52581 -3.76915,6.46499 -6.64049,8.16083 -2.92081,-2.95364 1.34073,-6.67353 2.43983,-9.55123 1.42872,-1.61483 3.10812,-3.97576 0.4363,-5.42217 -3.29063,-3.35963 -0.0929,-10.48085 -5.59583,-11.87625 -1.92972,-1.38857 -3.60403,-3.02717 -6.26032,-3.10002 -8.96103,-2.10174 -17.7769,-4.91327 -26.85969,-6.38375 -2.18447,-1.28423 -3.22359,-4.15233 -6.02352,-4.40318 -1.90276,-2.44395 -5.08774,-1.0326 -7.53334,-1.21992 0.40894,-2.35418 3.26861,-4.72475 2.6508,-7.00663 -0.17228,-0.0958 -0.38071,-0.0956 -0.57121,-0.0804 z m 24.61792,38.0083 c 6.30121,0.30236 7.16118,8.30363 6.54449,13.18801 0.0592,4.1571 -3.13015,8.51342 -7.69121,7.46159 -5.79713,-0.57036 -5.88212,-7.94753 -5.67025,-12.34437 -0.0197,-4.0051 2.08099,-8.72162 6.81697,-8.30523 z m -13.76496,0.57407 c 4.36663,0.17768 1.04373,8.04489 2.07529,11.55764 -0.21678,4.18161 1.75829,10.55508 -4.57684,8.61835 -0.61605,-4.49223 0.37963,-10.23667 -0.47649,-14.69928 -1.77593,2.25026 -4.58727,2.21064 -5.5255,-0.62574 2.59305,-1.82536 5.10164,-4.63778 8.50354,-4.85097 z"
     id="path32" />
  <path
     style="fill:#698dc5;fill-opacity:1;stroke-width:0.73482"
     d="m 584.12188,146.51915 c -3.1517,1.62471 -2.46954,6.43393 -2.25613,9.44216 -0.25239,1.98299 2.53135,5.50035 3.76021,2.43409 0.86876,-3.64548 1.63798,-8.56934 -0.78074,-11.72412 -0.2181,-0.1241 -0.47416,-0.17381 -0.72334,-0.15213 z"
     id="path33" />
  <path
     style="fill:#698dc5;fill-opacity:1;stroke-width:0.73482"
     d="m 602.39192,89.224696 c -5.76192,1.13823 -10.21097,6.003149 -13.85538,10.333411 -1.84345,2.856793 -5.48521,3.834963 -8.31409,5.432213 -2.93243,0.54099 -5.53429,1.85453 -7.64816,3.9554 -1.03129,1.18114 -5.95071,1.16678 -3.63966,3.55929 1.41877,3.04412 4.39036,4.66032 7.65705,4.39011 9.09989,2.21451 18.50078,3.93812 27.12636,7.64975 1.84743,1.7496 5.40624,1.95934 5.07916,5.29587 0.82827,2.74936 0.045,7.25716 2.89766,8.80923 3.54152,-2.48093 3.66177,-7.9 5.47814,-11.56911 0.315,-1.80705 1.77935,-3.93289 3.42725,-2.1284 2.35032,-0.15051 4.63951,-2.55877 6.88177,-0.58412 2.09703,-0.72386 1.70358,-4.71017 4.72036,-4.52087 3.04678,-0.16806 6.44407,-0.0695 8.63557,-2.58622 6.49393,-1.4597 13.4002,0.13329 19.97453,-1.16881 3.04969,0.0409 6.63192,-0.0469 2.40448,-2.49955 -2.78786,-2.13597 0.21845,-7.03648 -2.28913,-8.85803 -4.10074,0.79021 -8.92861,4.0071 -12.93399,1.61172 -1.64934,-1.39046 0.44399,-5.95577 -2.69674,-5.25855 -3.98301,2.36269 -8.51178,2.70133 -12.98852,3.1359 -4.87063,0.94607 -8.47553,7.78498 -13.91566,5.51546 -3.29369,-0.19393 -7.3707,0.31992 -9.13215,-3.28373 -1.69614,-4.01154 -6.93687,-4.86229 -10.74818,-4.2855 -1.1774,0.48756 -3.11433,3.40237 -4.19508,1.73229 0.81009,-3.50798 2.6649,-7.405936 5.7824,-9.310121 0.43891,-2.595478 3.67779,-2.585935 4.75481,-4.456283 -0.20877,-1.029951 -1.6976,-0.893552 -2.4628,-0.91135 z"
     id="path34" />
  <path
     style="fill:#698dc5;fill-opacity:1;stroke-width:0.73482"
     d="m 591.98532,75.234406 c -3.13122,2.010679 -6.57826,3.880395 -9.44072,6.235927 0.15884,2.268516 3.60969,0.222242 4.52804,-0.575514 1.68154,-1.62535 5.06786,-3.242496 5.19972,-5.628838 -0.0882,-0.04495 -0.19145,-0.04682 -0.28704,-0.03157 z"
     id="path35" />
  <path
     style="fill:#698dc5;fill-opacity:1;stroke-width:0.73482"
     d="m 669.00941,112.61121 c -2.61387,0.4119 -0.56916,5.11284 1.80548,4.01855 3.99816,-0.13465 0.47477,-4.61302 -1.80548,-4.01855 z"
     id="path36" />
  <path
     style="fill:#698dc5;fill-opacity:1;stroke-width:0.73482"
     d="m 654.48092,121.91272 c -2.36788,0.99595 -6.66768,3.67554 -5.07054,6.75116 0.76738,0.78981 4.24013,0.82337 2.48432,2.33076 -2.44461,0.5083 -5.83382,1.34661 -5.39921,4.61702 0.0604,3.56214 0.75758,8.76769 -4.12905,9.28285 -0.93913,-3.12056 1.27964,-6.42901 0.74199,-9.37183 -2.57647,-0.33047 -1.3388,4.52606 -3.84776,4.97439 -2.38675,0.70488 -3.16651,2.98142 -3.09141,5.1581 -3.52215,3.94242 -1.66574,9.67579 -3.86642,14.21274 -0.82303,3.97112 0.62695,8.06534 -0.74343,11.9925 1.10686,4.97872 5.06635,8.98356 6.33201,14.00045 2.89006,6.68577 -0.56744,13.95106 -2.39383,20.46578 -0.15285,1.7961 -2.38161,3.32506 -2.12409,4.91124 10.61105,0.48094 21.2863,-2.22411 31.95915,-1.73732 6.54203,-0.66294 13.29166,-1.41378 19.63614,-2.79216 1.77752,-3.89205 5.28271,-7.29463 4.99018,-11.90639 0.46417,-2.06703 3.33755,-2.84996 2.8302,-5.35328 -0.0629,-1.99463 1.94221,-4.90336 3.4373,-2.23172 2.39273,-0.57531 1.39602,-4.54716 1.58445,-6.3895 -0.748,-6.96802 -3.78731,-13.42926 -5.68911,-20.13149 -1.14306,-2.85805 -4.18602,-6.85814 -7.47594,-4.05443 -4.73628,1.80606 -3.75711,9.56559 -9.16229,10.18128 -4.29145,-0.63141 -4.26997,-7.98667 -0.13204,-8.69442 1.51538,-2.46777 1.73742,-5.69113 3.81332,-7.74862 0.70126,-4.67216 1.12278,-10.24596 -2.74123,-13.72478 -2.11875,-2.04031 3.47259,-2.56793 0.80515,-4.39887 -1.72517,-1.8108 -2.94344,-4.0054 -5.86134,-3.99989 -4.56382,-0.56681 -7.90643,-5.33645 -12.68426,-4.29411 -1.69569,-0.0701 -2.57937,-1.96342 -4.20226,-2.04946 z m 1.88155,50.60214 c 0,6.97027 0,13.94053 0,20.9108 -6.1909,1.94314 -4.7453,-3.74802 -4.74563,-7.99691 -0.53161,-1.71626 0.98808,-5.34238 -0.89182,-6.22731 -1.17935,1.68214 -3.49369,2.00825 -4.17355,-0.277 0.74517,-3.07175 4.57141,-4.79352 7.23338,-6.21727 0.81964,-0.33832 1.71905,-0.14172 2.57762,-0.19231 z m 11.6911,0 c 3.24061,-0.56233 6.68035,-0.239 4.94856,3.64253 -1.89344,0.77513 -7.75109,-0.68869 -6.01778,3.17895 2.57912,1.10798 6.91002,1.21602 7.59649,4.72323 1.33142,4.81957 -2.60779,10.09122 -7.80638,9.17213 -2.41977,0.62534 -6.7774,-0.7146 -5.37159,-3.93653 2.37727,-1.34541 6.52218,1.15823 8.15048,-1.34765 0.68581,-2.03649 -0.29951,-4.33615 -2.73548,-3.85063 -1.8505,-0.0785 -5.45862,0.24159 -4.94712,-2.62784 0.12799,-3.00215 0.6428,-5.96294 0.95153,-8.95419 1.74377,0 3.48753,0 5.23129,0 z"
     id="path37" />
  <path
     style="fill:#698dc5;fill-opacity:1;stroke-width:0.73482"
     d="m 812.53331,179.66644 c -22.63209,4.17838 -45.21567,9.35946 -67.80583,13.39325 -1.59328,-1.36201 0.0629,-7.06001 -2.77505,-4.58807 -2.71777,2.25465 -6.03726,4.09194 -8.67064,6.27586 0.87715,14.91467 4.59467,29.5807 7.84622,44.13658 0.40131,1.89016 1.16353,5.09144 3.80074,3.53069 24.61416,-3.79047 49.09337,-8.66092 73.37692,-14.13535 4.34798,-1.94723 8.56154,-4.40841 10.88596,-8.75039 3.88197,-2.5414 1.45275,-4.34405 -1.64904,-6.0063 -1.80082,-1.17179 -1.97319,-3.63993 -4.41323,-3.94392 -2.1357,-1.57652 -1.89099,-4.75389 0.0962,-6.26606 -0.55288,-4.53544 0.91365,-9.10094 2.97864,-13.17309 0.58568,-1.90194 -3.12887,-0.59048 -3.58573,-2.36865 -1.70241,-2.37936 -2.10208,-6.0078 -5.53698,-6.87889 -1.41356,-0.70204 -2.92153,-1.42102 -4.54814,-1.22566 z m -37.12995,30.12476 c -0.97986,3.41854 2.56921,11.36601 -3.1072,10.08799 -3.69504,-0.60911 -0.64559,-7.96271 -1.63756,-11.27489 0.93651,-4.22064 -1.55091,-1.80152 -3.60952,-0.85108 -1.72106,-1.1501 -1.79719,-3.83216 0.36167,-4.6773 2.17056,-2.10557 4.78982,-3.91675 7.99261,-3.36984 0,3.36171 0,6.72341 0,10.08512 z m 11.08545,-10.07938 c 4.38509,-0.24345 7.77622,3.73146 7.1358,7.99978 0.66596,5.16598 -1.31947,11.9844 -7.45585,12.4819 -1.52229,0.20131 -5.23461,1.46396 -4.48786,-1.48973 -0.37909,-3.8272 4.93769,-0.92579 6.65644,-3.34544 1.19005,-0.66909 2.05493,-3.0054 -0.17796,-2.4628 -3.75621,1.49137 -7.77865,-1.39292 -7.92372,-5.3418 -0.43041,-3.66628 2.00056,-8.28651 6.25315,-7.84191 z"
     id="path38" />
  <path
     style="fill:#698dc5;fill-opacity:1;stroke-width:0.73482"
     d="m 726.44308,198.65695 c -5.57284,2.70848 -8.95103,8.46524 -14.50552,11.04383 -3.90452,0.26944 -7.16955,2.88516 -10.90606,3.43443 -2.62704,-1.24453 -5.12755,-3.44107 -8.2983,-2.57618 -3.33082,-0.31259 -6.04027,-3.3615 -9.65169,-1.98057 -6.33731,0.93669 -12.92082,1.59873 -19.06945,2.92637 2.18808,18.4834 4.00382,37.29736 6.58611,55.56504 3.52495,0.19843 9.31503,-0.86181 10.53147,3.68989 1.16123,3.12765 5.724,0.68481 7.60654,3.32391 2.53188,1.20636 5.27939,-1.94331 7.87349,0.0804 2.80283,0.87322 5.33607,-4.26898 7.85339,-1.65909 0.97672,2.84065 5.45968,5.62175 8.06006,3.56216 0.91183,-2.38382 2.65988,-4.5481 2.47312,-7.38539 -0.0666,-2.60777 0.83737,-6.7106 4.29957,-5.4955 1.24334,-1.52401 0.42244,-4.15056 2.0839,-5.69055 1.4128,-2.70885 3.84309,-4.4984 6.73538,-5.16096 6.73911,-4.14255 6.96212,-12.73857 6.41566,-19.74234 -0.49489,-3.61492 0.55518,-7.03268 0.98995,-10.47859 -0.95768,-8.76932 -2.46859,-17.82714 -4.36156,-26.21241 -1.57202,0.91852 -3.14404,1.83705 -4.71606,2.75557 z m -30.40032,28.96943 c 0,6.72533 0,13.45066 0,20.17599 -6.37916,1.88221 -3.33314,-5.66075 -4.00993,-9.48091 0.39567,-3.52914 0.24058,-7.17744 -2.83021,-3.09859 -1.4108,1.33477 -4.39095,-2.38902 -1.98918,-3.23636 2.6295,-1.78356 5.37997,-4.66252 8.82932,-4.36013 z m 11.95662,0 c 2.0313,0.60773 5.88675,-1.11263 7.13292,1.02186 -1.23811,6.26594 -4.0801,12.36524 -7.0913,18.02319 -0.91902,1.09126 -4.01874,1.85097 -4.49647,0.52098 1.48684,-5.19164 4.81547,-10.00585 6.0063,-15.13988 -2.67804,-1.14956 -7.17716,0.62129 -8.70016,-1.15103 -1.43258,-5.49247 3.82307,-2.54063 7.14871,-3.27512 z"
     id="path39" />
  <path
     style="fill:#698dc5;fill-opacity:1;stroke-width:0.73482"
     d="m 786.31946,203.74903 c -3.2852,0.6764 -1.09103,7.94618 2.12265,5.41212 1.97759,-1.7518 0.69105,-5.65726 -2.12265,-5.41212 z"
     id="path40" />
  <path
     style="fill:#698dc5;fill-opacity:1;stroke-width:0.73482"
     d="m 708.88203,356.13239 c -13.1563,2.28074 -26.64967,2.51258 -39.72479,5.17819 -2.56832,1.68362 -0.12314,5.65488 0.17653,7.97825 5.66163,13.65332 6.88961,28.83637 12.93398,42.35407 1.8849,1.91955 1.5044,5.09781 3.931,6.40384 0.70672,4.48529 -3.46499,8.79579 -1.58302,13.49515 1.73512,3.64942 0.29823,7.88789 1.32612,11.52032 2.74948,2.59779 3.08059,8.10246 7.04682,9.22688 16.30985,0.32134 32.62107,-1.92846 48.89712,-1.86863 0.6205,0.64457 0.57666,4.05057 2.18294,2.259 1.62111,-2.76118 -2.31175,-6.24427 -0.0301,-8.5265 3.6144,-1.10089 7.63538,0.66703 11.13712,0.16792 -1.70545,-7.94813 2.0303,-15.50558 2.96512,-23.28749 0.4112,-2.34358 2.47031,-4.34592 2.91058,-6.42681 -4.03662,1.02339 -5.85863,-2.92197 -7.0095,-5.94458 -2.17978,-2.89622 -5.9952,-4.60614 -6.60764,-8.5796 -1.21173,-3.56801 -3.48674,-6.79133 -7.00375,-8.2696 -2.73438,-2.4759 -4.21639,-6.04338 -7.62233,-7.77876 -2.65369,-3.26341 -6.62158,-4.76307 -9.8354,-7.2133 -3.29533,-3.26239 -4.37215,-9.862 -9.7622,-10.22864 -3.61068,-0.84934 -8.60648,-5.27167 -4.9543,-8.87238 1.09543,0.22744 2.21514,-1.43412 0.62575,-1.58733 z m -2.22312,42.70713 c 4.06514,0.41267 0.8631,8.09252 1.8758,11.55763 -0.21678,4.18162 1.75829,10.55509 -4.57684,8.61835 -0.81298,-4.31988 0.72112,-9.82547 -0.73052,-14.19983 -1.45692,0.51924 -3.53451,3.00674 -4.51799,0.19519 -0.30753,-2.6174 3.38696,-3.8997 5.23703,-5.29731 0.85898,-0.42859 1.71867,-0.83536 2.71252,-0.87403 z m 15.96655,0 c 2.18127,-0.9048 3.96567,1.78512 2.12122,3.16604 -2.24369,0.10708 -6.45825,0.8459 -6.53444,3.57651 2.85489,0.99112 7.74313,0.0378 8.43034,4.18646 1.58681,4.56476 -1.79894,10.209 -6.91765,9.59572 -6.55091,-0.76448 -7.23187,-9.12208 -5.66615,-14.17543 0.92328,-3.88164 4.57054,-6.59467 8.56668,-6.3493 z"
     id="path41" />
  <path
     style="fill:#698dc5;fill-opacity:1;stroke-width:0.73482"
     d="m 830.28812,298.93266 c -30.83106,6.87265 -61.869,13.29637 -93.23607,17.09462 -2.22568,0.202 -6.71926,-0.76637 -5.74365,3.04548 -0.18917,3.19839 -3.3868,5.1779 -4.45485,8.14761 -1.77526,1.18009 -4.72385,0.33123 -5.69199,2.89622 -1.68787,2.49138 -5.53016,0.38038 -7.28936,3.1804 -1.97937,1.43297 -1.25963,4.58484 -3.94679,5.36333 -4.44326,3.02465 -9.04994,5.75039 -13.67454,8.45904 -1.53269,1.6625 -1.5613,4.67261 -4.37161,5.07198 -2.48372,0.73531 -2.68188,6.49077 0.69821,4.71649 10.55037,-0.57429 20.99919,-2.96735 30.3135,-8.06767 8.63842,-2.75116 18.11638,-3.29514 27.13382,-2.55321 3.06896,1.22052 3.94069,6.46875 7.94581,4.43807 6.45577,-0.58062 13.82425,-3.44981 19.52097,1.1635 7.01428,3.69892 12.95291,9.07269 19.5445,13.33871 2.84313,0.16756 5.8913,-0.79804 8.64131,-1.58015 2.9307,-4.34172 3.24178,-10.42329 7.57735,-13.99656 4.17588,-4.22069 9.51812,-7.37652 15.48051,-7.69499 2.01416,-1.42697 3.97369,-4.12839 4.17355,-6.47704 -1.32677,0.23917 -2.29623,2.0773 -3.21627,0.18944 -1.25595,-0.79786 -4.87032,0.31675 -3.34832,-2.14418 0.52343,-2.02929 2.01346,-5.64888 -1.0276,-5.97759 -0.56385,-0.85408 -0.41492,-2.96143 0.74487,-1.30316 3.41148,1.49736 8.19098,0.31104 9.02882,-3.75304 0.84564,-2.36601 4.00534,-3.23401 3.18613,-6.26319 -0.65838,-1.98875 2.35231,-1.89197 1.22135,-3.80471 -3.49482,-3.89608 -5.07996,-9.1141 -8.32126,-13.16792 -0.25143,-0.19658 -0.56283,-0.34021 -0.88839,-0.32148 z m -41.27049,22.7622 c 2.40084,-0.98494 3.63409,2.49455 1.77677,3.60522 -2.46997,-0.033 -7.17419,0.86218 -7.13723,3.83197 2.86972,0.5433 6.9568,-1.24165 8.36863,2.46423 2.82007,4.35324 -0.31904,10.99701 -5.71926,10.74101 -4.99697,0.36992 -7.35248,-5.3025 -6.80426,-9.54262 -0.47572,-5.60296 3.43564,-11.57274 9.51535,-11.09981 z m -16.33253,0.0459 c 3.16778,0.57727 1.36463,5.34539 1.97339,7.60223 0.0196,4.17209 0.006,8.34423 0.01,12.51635 -5.48665,1.64414 -5.12017,-2.56483 -4.74476,-6.78274 -0.4555,-2.07302 0.71706,-5.77894 -0.88982,-7.14297 -1.34687,0.61601 -2.8124,2.88616 -3.9798,0.7176 -2.3216,-2.04895 2.03052,-3.73829 3.18901,-5.07485 1.30929,-0.91033 2.79215,-1.83808 4.44193,-1.83562 z"
     id="path46" />
  <path
     style="fill:#698dc5;fill-opacity:1;stroke-width:0.73482"
     d="m 786.55052,332.31244 c -2.19242,0.67144 -3.84142,3.18835 -1.94182,5.19111 1.99556,3.00318 5.3622,-1.52892 3.62818,-3.78748 -0.28609,-0.6743 -0.85526,-1.4722 -1.68636,-1.40363 z"
     id="path47" />
  <path
     style="fill:#698dc5;fill-opacity:1;stroke-width:0.73482"
     d="m 720.49276,409.57335 c -3.69306,0.10983 -2.5807,7.12378 0.80945,5.80249 2.0283,-1.11955 2.01702,-6.00619 -0.80945,-5.80249 z"
     id="path48" />
  <path
     style="fill:#698dc5;fill-opacity:1"
     d="m 888.39777,49.967782 c 1.48848,0.744238 2.81019,1.211451 3.6741,2.939281 0.51258,1.02515 0.28198,22.557206 0,24.249071 -0.21685,1.301096 -0.28985,3.084208 -1.46964,3.674101 -1.30099,0.650497 -5.1317,0 -6.61338,0 -8.64925,0 -8.08303,-6.274359 -8.08303,-12.491945 0,-1.469641 -0.46474,-3.014698 0,-4.408922 0.91954,-2.758602 3.35109,-5.197015 5.14375,-7.348203 3.47122,-4.165466 -0.65431,-0.112718 2.93928,-5.143742 0.60402,-0.845626 1.68887,-1.302189 2.20446,-2.204461 0.50106,-0.876851 0.48988,-1.959521 0.73482,-2.939282 0.73482,-0.97976 1.46964,-1.959521 2.20446,-2.939281 -0.92425,8.318273 -2.03827,6.17199 3.6741,13.961586 1.63878,2.234694 4.4528,3.502295 5.87856,5.878563 1.02535,2.392467 2.97895,7.228954 4.40893,9.552664 1.1043,1.79449 2.46578,3.417576 3.6741,5.143742 1.5547,2.22101 1.49259,1.917369 2.20446,4.408922 1.73892,6.08623 -0.84118,4.408922 -5.87856,4.408922 -1.46964,0 -3.21303,0.854211 -4.40893,0 -1.27624,-0.911603 -1.74847,-2.653412 -2.93928,-3.674102 -0.58809,-0.504082 -1.55998,-0.305167 -2.20446,-0.73482 -0.86466,-0.57644 -1.41545,-1.528163 -2.20446,-2.204461 -4.37331,-3.74855 -4.40892,-4.053264 -4.40892,-9.552664"
     id="path50" />
  <path
     style="fill:#698dc5;fill-opacity:1"
     d="m 892.80669,47.028501 c 2.87042,1.998299 7.58383,3.646145 8.81785,7.348203 0.23237,0.697112 -0.12081,1.479639 0,2.204461 1.0794,6.476409 0.73482,13.190469 0.73482,19.840149 0,0.24494 0,-0.489881 0,-0.734821 0,-0.97976 0,-1.959521 0,-2.939281 0,-3.847569 0.32862,-1.547218 -2.20447,-6.613383 -1.56192,-3.123842 -6.62087,-8.193351 -9.55266,-10.287485 -0.89137,-0.636691 -2.08391,-0.785346 -2.93928,-1.46964 -0.42768,-0.342147 -0.48988,-0.979761 -0.73482,-1.469641 -0.48988,-0.24494 -0.99999,-0.453029 -1.46964,-0.73482 -0.6129,-0.367742 -5.6082,-3.209646 -4.40892,-4.408922 1.84299,-1.842999 4.4248,-3.684687 6.61338,-5.143742"
     id="path51" />
  <path
     style="fill:#698dc5;fill-opacity:1"
     d="m 880.31475,51.437423 c -1.33891,2.628973 -4.12592,-0.876325 -5.87857,0 -0.21908,0.10954 0.10954,0.515739 0,0.73482 -1.32552,2.651048 -2.20446,3.542337 -2.20446,6.613383 0,2.302851 -0.80817,14.138145 0,15.431227 4.16587,6.665384 12.49377,4.408921 19.10533,4.408921 3.17866,0 8.18765,0.965975 11.02231,-0.73482 0.97638,-0.585833 2.51017,-2.815893 2.93928,-3.674101 3.08894,-6.177881 -2.80214,-7.170637 -6.61339,-9.552665 -4.16242,-2.601517 -0.63696,-3.478388 -2.20446,-6.613383 -0.76263,-1.525269 -4.7974,-5.424566 -6.61338,-5.878562 -0.47525,-0.118814 -1.0148,0.181937 -1.46964,0 -0.81998,-0.327992 -1.32494,-1.389685 -2.20446,-1.469641 -1.96666,-0.178787 -3.91904,0.48988 -5.87856,0.734821 z"
     id="path52" />
  <path
     style="fill:#698dc5;fill-opacity:1"
     d="m 895.74597,58.050805 c -2.71772,2.812319 -2.88316,6.018867 -1.46964,9.552665 1.21177,3.029431 9.7708,7.210486 11.02231,2.204461 0.39323,-1.572945 -0.46685,-2.066263 -0.73482,-3.674102 -0.12081,-0.724822 0.2729,-1.522197 0,-2.204461 -0.2573,-0.643244 -1.05397,-0.915404 -1.46964,-1.469641 -0.91062,-1.214154 -0.51708,-2.189331 -2.20447,-2.939281 -1.6295,-0.724222 -4.01455,-0.08953 -5.14374,-1.469641 -3.23607,-14.562305 1.22096,-3.432156 -3.6741,-7.348203 -0.68962,-0.551696 -0.76312,-1.674574 -1.46964,-2.204461 -1.0659,-0.799422 -6.61338,-0.616834 -6.61338,2.939282"
     id="path53" />
  <path
     style="fill:#698dc5;fill-opacity:1"
     d="m 867.8228,102.14002 c 4.13807,1.41755 5.09509,2.72421 7.3482,5.87857 2.29707,3.21588 2.08977,4.17953 3.67411,7.3482 1.14423,2.28847 4.78643,4.22017 7.3482,2.93928 0.48988,-0.24494 0.4062,-1.03148 0.73482,-1.46964 0.41568,-0.55423 1.1132,-0.87557 1.46964,-1.46964 0.39851,-0.66419 0.30517,-1.55998 0.73482,-2.20446 1.96472,-2.94708 2.46277,-1.07332 2.93928,-4.40892 0.80162,-5.6113 0,-11.956731 0,-17.63569 0,-1.412168 0.66525,-6.283802 0,-7.348203 -0.23154,-0.370459 -5.85436,-4.601581 -6.61338,-5.143743 -1.55032,-1.107366 -4.56379,-2.494438 -6.61338,-1.46964 -0.48988,0.24494 -0.39268,1.041956 -0.73482,1.46964 -0.64918,0.811474 -1.62803,1.339801 -2.20447,2.204461 -1.81418,2.721279 0.54687,6.254472 -0.73482,8.817844 -0.46474,0.929483 -1.46964,1.469641 -2.20446,2.204461"
     id="path54" />
  <path
     style="fill:#698dc5;fill-opacity:1"
     d="m 871.4969,99.935564 c -0.97976,0 -2.93928,-0.979761 -2.93928,0 0,0.979756 2.70166,-0.950507 2.93928,0 0.48988,1.959516 -1.46964,3.858736 -1.46964,5.878566 0,0.0112 6.36543,3.37655 6.61338,3.6741 1.72016,2.06419 -0.33812,6.99055 2.93929,8.08302 2.39567,0.79856 3.7015,-12.93615 2.20446,-15.43123 -2.68769,-4.479481 -5.87164,-3.466126 -10.28749,-2.204456 z"
     id="path55" />
  <path
     style="fill:#698dc5;fill-opacity:1"
     d="m 875.171,102.14002 c -0.97976,0.24494 -3.18422,-0.24494 -2.93928,0.73483 0.24494,0.97976 2.74122,-1.72513 2.93928,-0.73483 0.4245,2.12247 -2.91056,7.38649 -0.73482,10.28749 1.01667,1.35556 3.75347,1.46964 5.14375,1.46964 5.10295,0 5.8046,1.00817 9.55266,-2.20446 3.95883,-3.39329 0.12309,-7.45016 -3.6741,-8.08302 -4.96063,-0.82678 -3.45902,0.23747 -10.28749,-1.46965 z"
     id="path56" />
  <text
     xml:space="preserve"
     style="writing-mode:lr-tb;direction:ltr;fill:#000000;fill-opacity:1"
     x="888.39777"
     y="88.913261"
     id="text56"><tspan
       sodipodi:role="line"
       id="tspan56"
       x="888.39777"
       y="88.913261" /></text>
  <text
     xml:space="preserve"
     style="font-style:normal;font-variant:normal;font-weight:bold;font-stretch:normal;font-size:21.3333px;font-family:'DejaVu Sans';-inkscape-font-specification:'DejaVu Sans Bold';text-align:center;writing-mode:lr-tb;direction:ltr;text-anchor:middle;white-space:pre;inline-size:15.8455;display:inline;fill:#000000"
     x="898.52496"
     y="88.913261"
     id="text1"><tspan
       x="898.52496"
       y="88.913261"
       id="tspan4"><tspan
   style="font-size:26.6667px;font-family:'Helvetica Neue';-inkscape-font-specification:'Helvetica Neue Bold'"
   id="tspan3">4</tspan><tspan
   y="88.913261"
   id="tspan5">   </tspan></tspan></text>
</svg>
